<svg xmlns="http://www.w3.org/2000/svg" xmlns:xlink="http://www.w3.org/1999/xlink" viewBox="0 0 268.75 210.61"><defs><style>.cls-1{fill:#91b3fa;}.cls-2{fill:#bdd0fb;}.cls-3{fill:#fff;}.cls-4{fill:url(#linear-gradient);}.cls-5{fill:url(#linear-gradient-2);}.cls-6{fill:url(#linear-gradient-3);}.cls-7{fill:url(#linear-gradient-4);}.cls-8{fill:url(#linear-gradient-5);}.cls-9{fill:url(#linear-gradient-6);}.cls-10,.cls-22,.cls-29,.cls-47{fill:#68e1fd;}.cls-11{fill:url(#linear-gradient-7);}.cls-12{fill:url(#linear-gradient-8);}.cls-13{fill:url(#linear-gradient-9);}.cls-14{fill:url(#linear-gradient-10);}.cls-15{fill:url(#linear-gradient-11);}.cls-16{fill:url(#linear-gradient-12);}.cls-17{fill:url(#linear-gradient-13);}.cls-18{fill:url(#linear-gradient-14);}.cls-19{opacity:0.73;}.cls-20{fill:#dce5fe;}.cls-21{fill:#7d97f4;}.cls-22{opacity:0.18;}.cls-22,.cls-29,.cls-47{isolation:isolate;}.cls-23{fill:url(#linear-gradient-15);}.cls-24{fill:url(#linear-gradient-16);}.cls-25{fill:url(#linear-gradient-17);}.cls-26{fill:url(#linear-gradient-18);}.cls-27{fill:url(#linear-gradient-19);}.cls-28{fill:url(#linear-gradient-20);}.cls-29{opacity:0.44;}.cls-30{fill:url(#linear-gradient-21);}.cls-31{fill:url(#linear-gradient-22);}.cls-32{fill:url(#linear-gradient-23);}.cls-33{fill:#473f47;}.cls-34{fill:url(#linear-gradient-24);}.cls-35{fill:#ffbbab;}.cls-36{fill:#963637;}.cls-37{fill:#212741;}.cls-38{fill:url(#linear-gradient-25);}.cls-39{fill:url(#linear-gradient-26);}.cls-40{fill:url(#linear-gradient-27);}.cls-41{fill:url(#linear-gradient-28);}.cls-42{fill:url(#linear-gradient-29);}.cls-43{fill:url(#linear-gradient-30);}.cls-44{fill:url(#linear-gradient-31);}.cls-45{fill:url(#linear-gradient-32);}.cls-46{fill:url(#linear-gradient-33);}.cls-47{opacity:0.16;}.cls-48{fill:url(#linear-gradient-34);}.cls-49{fill:url(#linear-gradient-35);}.cls-50{fill:#fc682d;}.cls-51{fill:url(#linear-gradient-36);}</style><linearGradient id="linear-gradient" x1="167.76" y1="110.75" x2="234.05" y2="110.75" gradientUnits="userSpaceOnUse"><stop offset="0" stop-color="#dae3fe"/><stop offset="1" stop-color="#e9effd"/></linearGradient><linearGradient id="linear-gradient-2" x1="218.01" y1="97.52" x2="221.54" y2="97.52" xlink:href="#linear-gradient"/><linearGradient id="linear-gradient-3" x1="218.13" y1="103.49" x2="227.76" y2="103.49" xlink:href="#linear-gradient"/><linearGradient id="linear-gradient-4" x1="203.53" y1="105.78" x2="207.43" y2="105.78" xlink:href="#linear-gradient"/><linearGradient id="linear-gradient-5" x1="203.57" y1="113.31" x2="215.65" y2="113.31" xlink:href="#linear-gradient"/><linearGradient id="linear-gradient-6" x1="183.1" y1="124.17" x2="196.13" y2="124.17" xlink:href="#linear-gradient"/><linearGradient id="linear-gradient-7" x1="70.85" y1="139.83" x2="26.71" y2="35.57" gradientUnits="userSpaceOnUse"><stop offset="0.01"/><stop offset="0.13" stop-opacity="0.69"/><stop offset="0.25" stop-opacity="0.32"/><stop offset="1" stop-opacity="0"/></linearGradient><linearGradient id="linear-gradient-8" x1="13.23" y1="105.69" x2="73.46" y2="105.69" xlink:href="#linear-gradient"/><linearGradient id="linear-gradient-9" x1="25.49" y1="90.22" x2="27.78" y2="90.22" xlink:href="#linear-gradient"/><linearGradient id="linear-gradient-10" x1="17.81" y1="95.83" x2="27.43" y2="95.83" xlink:href="#linear-gradient"/><linearGradient id="linear-gradient-11" x1="38.34" y1="100.22" x2="40.86" y2="100.22" xlink:href="#linear-gradient"/><linearGradient id="linear-gradient-12" x1="28.31" y1="107.27" x2="40.54" y2="107.27" xlink:href="#linear-gradient"/><linearGradient id="linear-gradient-13" x1="46.03" y1="120.48" x2="59.23" y2="120.48" xlink:href="#linear-gradient"/><linearGradient id="linear-gradient-14" x1="56.26" y1="113.26" x2="59.29" y2="113.26" xlink:href="#linear-gradient"/><linearGradient id="linear-gradient-15" x1="224.18" y1="155.05" x2="233.68" y2="103.61" gradientUnits="userSpaceOnUse"><stop offset="0.01" stop-color="#399"/><stop offset="0.86" stop-color="#64d9f5"/></linearGradient><linearGradient id="linear-gradient-16" x1="214.04" y1="132.8" x2="235.34" y2="132.8" xlink:href="#linear-gradient"/><linearGradient id="linear-gradient-17" x1="186.07" y1="101.44" x2="202.67" y2="101.44" xlink:href="#linear-gradient"/><linearGradient id="linear-gradient-18" x1="217.4" y1="165.08" x2="261.51" y2="165.08" xlink:href="#linear-gradient"/><linearGradient id="linear-gradient-19" x1="-4085.75" y1="-2745.1" x2="-4148.82" y2="-2798.83" gradientTransform="matrix(0.82, -0.58, -0.58, -0.82, 1860.95, -4450.05)" xlink:href="#linear-gradient-7"/><linearGradient id="linear-gradient-20" x1="181.8" y1="-28.19" x2="84.76" y2="-52.4" gradientTransform="matrix(1, 0, 0, -1, -38.95, 122.28)" xlink:href="#linear-gradient-7"/><linearGradient id="linear-gradient-21" x1="653.35" y1="-45.4" x2="705.59" y2="-76.46" gradientTransform="matrix(1, 0, 0, -1, -611.97, 122.28)" gradientUnits="userSpaceOnUse"><stop offset="0.01"/><stop offset="0.08" stop-opacity="0.69"/><stop offset="0.21" stop-opacity="0.32"/><stop offset="1" stop-opacity="0"/></linearGradient><linearGradient id="linear-gradient-22" x1="112.43" y1="-38.66" x2="100.13" y2="18.39" gradientTransform="matrix(1, 0, 0, -1, -38.95, 122.28)" xlink:href="#linear-gradient-21"/><linearGradient id="linear-gradient-23" x1="673.69" y1="-42.69" x2="645.78" y2="-66.62" xlink:href="#linear-gradient-21"/><linearGradient id="linear-gradient-24" x1="666.36" y1="-27.28" x2="656.03" y2="-49.33" xlink:href="#linear-gradient-21"/><linearGradient id="linear-gradient-25" x1="663.79" y1="-54.58" x2="683.04" y2="-58.91" xlink:href="#linear-gradient-21"/><linearGradient id="linear-gradient-26" x1="677.47" y1="-16.14" x2="639.49" y2="-36.4" xlink:href="#linear-gradient-21"/><linearGradient id="linear-gradient-27" x1="161.76" y1="5.54" x2="165.45" y2="-44.2" gradientTransform="matrix(1, 0, 0, -1, 0, 151.28)" xlink:href="#linear-gradient-21"/><linearGradient id="linear-gradient-28" x1="267.09" y1="-21.43" x2="213.81" y2="-39.33" gradientTransform="matrix(1, 0, 0, -1, -38.95, 122.28)" xlink:href="#linear-gradient-21"/><linearGradient id="linear-gradient-29" x1="168.04" y1="-29.75" x2="137.4" y2="-25.81" gradientTransform="matrix(1, 0, 0, -1, -38.95, 122.28)" xlink:href="#linear-gradient-21"/><linearGradient id="linear-gradient-30" x1="139.45" y1="-33.03" x2="212.31" y2="-20.4" gradientTransform="matrix(1, 0, 0, -1, -38.95, 122.28)" xlink:href="#linear-gradient-21"/><linearGradient id="linear-gradient-31" x1="257.12" y1="-20.82" x2="229.85" y2="-12.81" gradientTransform="matrix(1, 0, 0, -1, -38.95, 122.28)" xlink:href="#linear-gradient-21"/><linearGradient id="linear-gradient-32" x1="193.61" y1="-5.61" x2="213.51" y2="-172.87" gradientTransform="matrix(1, 0, 0, -1, -38.95, 122.28)" xlink:href="#linear-gradient-21"/><linearGradient id="linear-gradient-33" x1="158.45" y1="-52.05" x2="184.03" y2="-46.91" gradientTransform="matrix(1, 0, 0, -1, -38.95, 122.28)" xlink:href="#linear-gradient-21"/><linearGradient id="linear-gradient-34" x1="163.13" y1="-25.33" x2="176.24" y2="-11.75" gradientTransform="matrix(1, 0, 0, -1, -38.95, 122.28)" xlink:href="#linear-gradient-21"/><linearGradient id="linear-gradient-35" x1="152.47" y1="-31.16" x2="181.45" y2="-27.76" gradientTransform="matrix(1, 0, 0, -1, -38.95, 122.28)" xlink:href="#linear-gradient-21"/><linearGradient id="linear-gradient-36" x1="284.8" y1="-51.11" x2="165.04" y2="-40.59" gradientTransform="matrix(1, 0, 0, -1, -38.95, 122.28)" xlink:href="#linear-gradient-21"/></defs><title>progress</title><g id="Layer_2" data-name="Layer 2"><g id="Layer_1-2" data-name="Layer 1"><path class="cls-1" d="M224.5,54a3.7,3.7,0,0,1,3.54,0,3.06,3.06,0,0,1,1.23,3.07c-6,48.62-47,69.36-62.16,75.44a3.5,3.5,0,0,1-3.58-.31,3.29,3.29,0,0,1-.9-3.4C173.84,80.79,210.72,60.18,224.5,54Z"/><path class="cls-2" d="M225.58,59.66c-1,1.59-2.11,3.16-3.18,4.73l-1.63,2.34-1.64,2.33q-3.28,4.66-6.7,9.23-6.81,9.15-14.09,17.93l-3.67,4.37c-1.23,1.45-2.5,2.86-3.75,4.29L189,107l-1.94,2.1-1.93,2.09c-.65.7-1.28,1.41-1.95,2.09l-4,4.09-1,1-1,1-2.05,2-2.06,2-.51.5-.53.48-1.07,1-4.26,3.81a.65.65,0,0,1-.87-1h0c5.76-4.91,11.31-10.08,16.59-15.52.68-.66,1.31-1.37,2-2.06l2-2.07,1.95-2.07,1.9-2.12c1.26-1.41,2.54-2.81,3.78-4.24l3.71-4.32Q205.09,87,212,77.92c4.57-6.06,9-12.22,13.22-18.54h0a.25.25,0,0,1,.34-.07A.25.25,0,0,1,225.58,59.66Z"/><path class="cls-2" d="M212.36,78.51a.27.27,0,0,1-.23-.12c-2.4-3.57-1.24-13.11-1.19-13.52a.28.28,0,1,1,.55.07c0,.1-1.19,9.75,1.09,13.15a.27.27,0,0,1-.07.38A.28.28,0,0,1,212.36,78.51Z"/><path class="cls-2" d="M212.36,78.51a.27.27,0,1,1,0-.54c.06,0,6.3-.21,10.68-2.4a.27.27,0,1,1,.24.49c-4.49,2.24-10.84,2.45-10.91,2.45Z"/><path class="cls-2" d="M199.44,94.58a.28.28,0,0,1-.25-.16c-2.85-6.3-1.18-15-1.16-15.1a.27.27,0,0,1,.32-.21.27.27,0,0,1,.22.32c0,.09-1.66,8.63,1.12,14.76a.28.28,0,0,1-.14.37Z"/><path class="cls-2" d="M204,95.32h-.41a14.68,14.68,0,0,1-4.15-.58.26.26,0,0,1-.17-.34.28.28,0,0,1,.35-.18c.06,0,6.1,2,14-1.6a.27.27,0,0,1,.36.13.29.29,0,0,1-.14.37A24.12,24.12,0,0,1,204,95.32Z"/><path class="cls-3" d="M183.56,115.59c-1.77,0-2.88-.11-2.91-.11a.28.28,0,0,1,0-.55A39.25,39.25,0,0,0,196,113.07a.28.28,0,0,1,.35.17.27.27,0,0,1-.16.35A38.26,38.26,0,0,1,183.56,115.59Z"/><path class="cls-2" d="M180.67,115.48a.28.28,0,0,1-.26-.19A33.08,33.08,0,0,1,179.92,99a.28.28,0,0,1,.54.13,32.44,32.44,0,0,0,.47,16,.27.27,0,0,1-.17.35Z"/><path class="cls-2" d="M234.65,87.43a3.09,3.09,0,0,1,2.75,1,2.54,2.54,0,0,1,.08,2.73c-18.28,36.16-56,40.78-69.55,41.24a2.9,2.9,0,0,1-2.7-1.25,2.72,2.72,0,0,1,.26-2.9C187.71,94,222.2,88.35,234.65,87.43Z"/><path class="cls-4" d="M234,92.16q-3.8,2.84-7.67,5.51c-2.57,1.81-5.18,3.57-7.8,5.31-5.24,3.47-10.59,6.79-16,10l-4.08,2.38c-1.37.78-2.75,1.53-4.13,2.29l-2.07,1.14-2.09,1.09L188,121c-.7.36-1.39.74-2.1,1.07l-4.25,2.07-1.07.52-1.07.48-2.16,1-2.16,1-.54.24-.54.22L173,128l-4.39,1.77a.65.65,0,1,1-.49-1.2h0q8.79-3.27,17.27-7.38c.72-.33,1.41-.7,2.11-1l2.1-1.06,2.1-1.06,2.07-1.11c1.38-.75,2.77-1.48,4.14-2.24l4.1-2.31c5.44-3.13,10.79-6.43,16.06-9.84s10.45-7,15.49-10.7h0a.25.25,0,0,1,.35.06A.24.24,0,0,1,234,92.16Z"/><path class="cls-5" d="M218.41,103.15a.28.28,0,0,1-.27-.21c-.87-3.47,2.73-10.59,2.88-10.89a.28.28,0,0,1,.37-.12.28.28,0,0,1,.12.37c0,.07-3.65,7.24-2.84,10.51a.27.27,0,0,1-.2.33Z"/><path class="cls-6" d="M225.85,104.39a27.26,27.26,0,0,1-7.53-1.26.27.27,0,0,1,.17-.52,25,25,0,0,0,9,1.14.27.27,0,0,1,.3.24.26.26,0,0,1-.24.3A13.25,13.25,0,0,1,225.85,104.39Z"/><path class="cls-7" d="M203.84,112a.27.27,0,0,1-.27-.25c-.45-5.72,3.19-11.85,3.35-12.1a.27.27,0,0,1,.37-.1.29.29,0,0,1,.1.38c0,.06-3.71,6.23-3.27,11.77a.27.27,0,0,1-.25.3Z"/><path class="cls-8" d="M213.7,115c-6.32,0-9.86-2.73-10-2.86a.28.28,0,0,1-.05-.39.27.27,0,0,1,.39,0s4.18,3.22,11.34,2.68a.28.28,0,0,1,.29.25.28.28,0,0,1-.25.3C214.81,115,214.25,115,213.7,115Z"/><path class="cls-9" d="M195.86,125.87h0A33,33,0,0,1,183.25,123a.28.28,0,0,1-.13-.36.27.27,0,0,1,.37-.13,32.46,32.46,0,0,0,12.37,2.83.28.28,0,0,1,0,.55Z"/><path class="cls-3" d="M183.37,123h0a.27.27,0,0,1-.27-.28,27.19,27.19,0,0,1,4.22-12.88.27.27,0,1,1,.45.3,26.71,26.71,0,0,0-4.12,12.59A.28.28,0,0,1,183.37,123Z"/><path class="cls-10" d="M27.61,46.88a3.7,3.7,0,0,0-3.49-.42,3.06,3.06,0,0,0-1.6,2.86c-.57,48.54,37,74.31,51.11,82.29a3.46,3.46,0,0,0,3.55.17,3.27,3.27,0,0,0,1.33-3.22C73.84,79.85,40.34,54.74,27.61,46.88Z"/><path class="cls-11" d="M27.61,46.88a3.7,3.7,0,0,0-3.49-.42,3.06,3.06,0,0,0-1.6,2.86c-.57,48.54,37,74.31,51.11,82.29a3.46,3.46,0,0,0,3.55.17,3.27,3.27,0,0,0,1.33-3.22C73.84,79.85,40.34,54.74,27.61,46.88Z"/><path class="cls-2" d="M26.25,52.05c3.29,6.76,6.85,13.4,10.55,20s7.56,13,11.6,19.36l3.07,4.73c1,1.57,2.11,3.11,3.16,4.67l1.59,2.33,1.64,2.29,1.64,2.29c.56.76,1.08,1.54,1.66,2.28q6.72,9.06,14.26,17.43h0a.65.65,0,1,1-1,.87h0l-3.68-4.31-.92-1.07-.46-.54-.44-.56-1.76-2.22-1.75-2.21-.88-1.11-.85-1.14-3.37-4.54c-.57-.75-1.1-1.53-1.64-2.3l-1.62-2.32-1.63-2.31-1.56-2.36c-1-1.57-2.1-3.13-3.12-4.71l-3-4.78q-6-9.6-11.48-19.47c-1.82-3.29-3.62-6.6-5.36-9.94l-1.31-2.51-1.28-2.51Q27,54.82,25.8,52.27a.24.24,0,0,1,.12-.33.25.25,0,0,1,.33.11Z"/><path class="cls-2" d="M36.35,72.54a.24.24,0,0,1-.18-.07.27.27,0,0,1,0-.39C38.83,69,39,59.41,39,59.31a.28.28,0,0,1,.28-.27h0a.28.28,0,0,1,.27.28c0,.4-.12,9.93-3,13.13A.27.27,0,0,1,36.35,72.54Z"/><path class="cls-2" d="M36.35,72.54H36.3c-.25-.05-6.27-1.06-10.39-3.85a.27.27,0,0,1-.07-.38.27.27,0,0,1,.38-.08C30.23,71,36.33,72,36.39,72a.29.29,0,0,1,.23.32A.28.28,0,0,1,36.35,72.54Z"/><path class="cls-2" d="M46.92,90a.28.28,0,0,1-.15,0,.28.28,0,0,1-.09-.38c3.54-5.66,3.06-14.26,3-14.35a.28.28,0,0,1,.55,0c0,.08.5,8.86-3.13,14.67A.26.26,0,0,1,46.92,90Z"/><path class="cls-2" d="M44.82,90.33a22.76,22.76,0,0,1-11.91-3.65.27.27,0,0,1-.08-.38.26.26,0,0,1,.37-.09c7.33,4.55,13.51,3.44,13.57,3.43a.27.27,0,0,1,.1.54A11.22,11.22,0,0,1,44.82,90.33Z"/><path class="cls-3" d="M62.59,113h0a39.35,39.35,0,0,1-15-3.9.27.27,0,0,1-.12-.37.27.27,0,0,1,.37-.11,38.92,38.92,0,0,0,14.73,3.83.29.29,0,0,1,.27.29A.28.28,0,0,1,62.59,113Z"/><path class="cls-2" d="M62.59,113l-.12,0a.28.28,0,0,1-.12-.37,32.23,32.23,0,0,0,2.58-15.69.27.27,0,0,1,.24-.31.28.28,0,0,1,.3.25,32.77,32.77,0,0,1-2.63,16A.27.27,0,0,1,62.59,113Z"/><path class="cls-2" d="M13.24,78.35a3,3,0,0,0-2.83.66A2.5,2.5,0,0,0,10,81.68c13.19,37.93,49.64,47.44,62.88,49.67a2.89,2.89,0,0,0,2.82-.86,2.73,2.73,0,0,0,.13-2.88C58.47,91,25.35,80.9,13.24,78.35Z"/><path class="cls-12" d="M13.66,82.74c4.45,4.33,9.09,8.5,13.81,12.55s9.54,8,14.47,11.79l3.72,2.81c1.25.93,2.52,1.83,3.77,2.74l1.9,1.36,1.92,1.32,1.92,1.32c.64.44,1.27.89,1.93,1.31q7.77,5.15,16,9.53h0a.65.65,0,0,1-.61,1.15h0l-4.07-2.33-1-.58-.51-.29-.5-.31-2-1.23-2-1.24-1-.62-1-.64-3.9-2.59c-.66-.43-1.28-.89-1.92-1.34L52.7,116.1l-1.92-1.35-1.88-1.39c-1.25-.93-2.51-1.85-3.74-2.8l-3.7-2.87c-4.89-3.87-9.7-7.83-14.39-11.93-2.35-2.06-4.67-4.13-7-6.24s-4.56-4.24-6.8-6.42a.26.26,0,0,1,0-.36.24.24,0,0,1,.35,0Z"/><path class="cls-13" d="M27.16,95.94l-.1,0a.28.28,0,0,1-.16-.36c1.24-3.11-1.37-10.62-1.4-10.69a.28.28,0,0,1,.17-.35.27.27,0,0,1,.35.17c.11.31,2.7,7.78,1.39,11.07A.27.27,0,0,1,27.16,95.94Z"/><path class="cls-14" d="M22.42,96.34a18.37,18.37,0,0,1-4.4-.48.28.28,0,0,1-.2-.34.29.29,0,0,1,.34-.2,24.9,24.9,0,0,0,9,.07.29.29,0,0,1,.32.22.28.28,0,0,1-.22.32A28.2,28.2,0,0,1,22.42,96.34Z"/><path class="cls-15" d="M40.29,106.57h-.06a.27.27,0,0,1-.21-.32c1.16-5.39-1.63-11.93-1.66-12a.28.28,0,1,1,.51-.21c.12.27,2.89,6.77,1.69,12.32A.28.28,0,0,1,40.29,106.57Z"/><path class="cls-16" d="M32.93,108.36a21.17,21.17,0,0,1-4.4-.47.28.28,0,1,1,.11-.54,19.2,19.2,0,0,0,8.38,0,11.85,11.85,0,0,0,3.11-1.13.28.28,0,0,1,.28.48A15.71,15.71,0,0,1,32.93,108.36Z"/><path class="cls-17" d="M49.62,121.44a25.57,25.57,0,0,1-3.35-.22.27.27,0,1,1,.08-.54,32.36,32.36,0,0,0,12.52-1.15.27.27,0,0,1,.34.17.28.28,0,0,1-.17.35A34,34,0,0,1,49.62,121.44Z"/><path class="cls-18" d="M59,120.06h0a.26.26,0,0,1-.24-.3,26.61,26.61,0,0,0-2.4-12.91.28.28,0,0,1,.5-.24,27,27,0,0,1,2.44,13.21A.26.26,0,0,1,59,120.06Z"/><path class="cls-1" d="M89.12,73.49h-.06L85.3,73a.51.51,0,0,1-.45-.41l-.63-2.94a14.07,14.07,0,0,1-3.7-2.08l-2.84,1a.54.54,0,0,1-.59-.18l-2.33-3a.53.53,0,0,1,0-.62l1.63-2.53a13.86,13.86,0,0,1-1.14-4.08l-2.7-1.31a.53.53,0,0,1-.3-.55l.46-3.75a.53.53,0,0,1,.42-.46L76,51.5a13.86,13.86,0,0,1,2.08-3.69l-1-2.84a.55.55,0,0,1,.18-.6l3-2.33a.54.54,0,0,1,.62,0l2.52,1.63a14.17,14.17,0,0,1,4.08-1.14l1.31-2.7a.54.54,0,0,1,.55-.29l3.75.45a.54.54,0,0,1,.46.42l.63,2.93a14.39,14.39,0,0,1,3.7,2.09l2.83-1a.53.53,0,0,1,.6.17l2.33,3a.54.54,0,0,1,0,.62l-1.63,2.52a13.84,13.84,0,0,1,1.14,4.09l2.7,1.31a.55.55,0,0,1,.3.54l-.46,3.76a.56.56,0,0,1-.42.46l-2.93.63a14.17,14.17,0,0,1-2.09,3.69l1,2.84a.54.54,0,0,1-.18.59l-3,2.34a.53.53,0,0,1-.62,0L95,69.35a13.86,13.86,0,0,1-4.08,1.14l-1.32,2.7A.52.52,0,0,1,89.12,73.49ZM80.63,67l.12.09a13.23,13.23,0,0,0,3.8,2.15l.14,0,.69,3.23,3.75.44,1.42-3h.16a13.51,13.51,0,0,0,4.2-1.18l.14-.06,2.77,1.79,3-2.33L99.7,65.08l.09-.12a13.2,13.2,0,0,0,2.14-3.8L102,61l3.23-.69.44-3.74-3-1.43,0-.15a13.48,13.48,0,0,0-1.17-4.21l-.07-.13,1.8-2.78-2.33-3L97.8,46l-.12-.1a13.33,13.33,0,0,0-3.8-2.14l-.14-.06-.69-3.23-3.75-.44-1.43,3-.15,0a13.42,13.42,0,0,0-4.2,1.17l-.14.07-2.77-1.8-3,2.34,1.08,3.1-.09.12a13.75,13.75,0,0,0-2.15,3.8l0,.14-3.22.69-.45,3.75,3,1.43,0,.15a13.42,13.42,0,0,0,1.17,4.2l.06.14L75.19,65.1l2.33,3Zm8.67-1.12a8.88,8.88,0,0,1-1.15-.07,9.32,9.32,0,0,1-4.63-1.91.26.26,0,0,1,0-.38.27.27,0,0,1,.38,0,8.86,8.86,0,1,0-3.36-8.06,9.09,9.09,0,0,0,0,1.88.27.27,0,1,1-.54,0,8.37,8.37,0,0,1,0-2A9.4,9.4,0,1,1,89.3,65.86Z"/><path class="cls-1" d="M89.22,60.13a3.66,3.66,0,0,1-1.31-.24A3.63,3.63,0,1,1,92.6,57.8a3.55,3.55,0,0,1-1.91,2A3.59,3.59,0,0,1,89.22,60.13Zm0-6.72a3.06,3.06,0,0,0-1.25.27,3,3,0,0,0-1.62,1.71,3.07,3.07,0,0,0,0,2.36,3.08,3.08,0,0,0,4.07,1.57,3,3,0,0,0,1.63-1.71,3.09,3.09,0,0,0-1.77-4A3,3,0,0,0,89.21,53.41Z"/><path class="cls-1" d="M115,16.12a.41.41,0,0,1-.31-.14l-.88-1a6.94,6.94,0,0,1-1.93,0l-.93,1a.39.39,0,0,1-.45.09l-1.66-.73a.39.39,0,0,1-.24-.4l.11-1.36a7.07,7.07,0,0,1-1.33-1.4l-1.37.05a.39.39,0,0,1-.38-.25L105,10.2a.4.4,0,0,1,.11-.45l1-.88a6.94,6.94,0,0,1,0-1.93l-1-.93a.4.4,0,0,1-.1-.45l.74-1.67a.4.4,0,0,1,.4-.23l1.36.11A7,7,0,0,1,109,2.44l0-1.37a.41.41,0,0,1,.26-.39L110.86,0a.4.4,0,0,1,.45.11l.89,1a6.5,6.5,0,0,1,1.92,0l.93-1a.4.4,0,0,1,.46-.1l1.66.74a.4.4,0,0,1,.24.39l-.12,1.37A7.06,7.06,0,0,1,118.63,4L120,4a.4.4,0,0,1,.39.25l.66,1.7a.4.4,0,0,1-.12.45l-1,.88a6.93,6.93,0,0,1,0,1.93l1,.93a.4.4,0,0,1,.09.45l-.73,1.67a.42.42,0,0,1-.4.24l-1.36-.12a6.54,6.54,0,0,1-1.4,1.33l0,1.37a.39.39,0,0,1-.25.39l-1.7.66Zm-1-1.77,1,1.19,1.5-.58-.06-1.56.13-.08a6.24,6.24,0,0,0,1.48-1.42l.09-.12,1.56.13.65-1.47-1.15-1.06,0-.15a6.41,6.41,0,0,0,0-2.05l0-.15,1.2-1-.58-1.5-1.56.06-.09-.12A6.48,6.48,0,0,0,116.84,3l-.12-.09.13-1.55L115.38.68l-1.06,1.14-.15,0a6.14,6.14,0,0,0-2-.05l-.15,0L111,.58l-1.5.58.06,1.56-.12.08a6.7,6.7,0,0,0-1.49,1.42l-.09.12-1.55-.13-.65,1.47,1.14,1.06,0,.15a6.14,6.14,0,0,0,0,2.05l0,.15-1.19,1,.58,1.5,1.56-.06.09.13a6.2,6.2,0,0,0,1.41,1.48l.13.09-.13,1.56,1.46.64,1.07-1.14.14,0a6.47,6.47,0,0,0,2.06,0Zm2.51.72Zm-7.49-.32ZM119.7,12ZM106,11.6Zm-.51-1.6Zm15-3.88ZM106.16,4.2Zm.15-.08Zm3.06-2.92h0Zm.09-.15ZM113,12.72a4.63,4.63,0,0,1-1.87-.4,4.7,4.7,0,0,1-1.93-1.57.28.28,0,0,1,.07-.39.28.28,0,0,1,.38.07,4.12,4.12,0,1,0-.41-4,5,5,0,0,0-.26.83.28.28,0,0,1-.33.22.28.28,0,0,1-.21-.33,5.14,5.14,0,0,1,.3-.94A4.67,4.67,0,1,1,113,12.72Z"/><path class="cls-1" d="M73.33,126.31l-.14,0-3.66-1a.53.53,0,0,1-.39-.47l-.22-3a13.81,13.81,0,0,1-3.37-2.57l-2.95.58a.54.54,0,0,1-.56-.25l-1.91-3.27a.54.54,0,0,1,.06-.62l2-2.28a14.19,14.19,0,0,1-.57-4.2l-2.49-1.67a.53.53,0,0,1-.22-.58l1-3.66a.52.52,0,0,1,.48-.39l3-.22a13.81,13.81,0,0,1,2.57-3.37L65.3,96.4a.56.56,0,0,1,.25-.57l3.28-1.9a.53.53,0,0,1,.61.06l2.28,2a14.24,14.24,0,0,1,4.2-.57l1.67-2.49a.53.53,0,0,1,.58-.22l3.66,1a.52.52,0,0,1,.39.47l.22,3a14.06,14.06,0,0,1,3.38,2.57l2.94-.58a.54.54,0,0,1,.57.25l1.9,3.27a.54.54,0,0,1-.06.62l-2,2.27a14.31,14.31,0,0,1,.57,4.21l2.49,1.67a.53.53,0,0,1,.22.58l-1,3.66a.53.53,0,0,1-.47.39l-3,.22a13.81,13.81,0,0,1-2.57,3.37l.58,3a.55.55,0,0,1-.25.57L82.54,125a.54.54,0,0,1-.62-.06l-2.27-2a14.31,14.31,0,0,1-4.21.57l-1.67,2.49A.54.54,0,0,1,73.33,126.31Zm-7.59-7.63.1.11a13.55,13.55,0,0,0,3.47,2.65l.13.07.25,3.29,3.64,1L75.16,123h.15a13.18,13.18,0,0,0,4.32-.58l.15,0,2.5,2.16,3.25-1.9-.65-3.23.11-.1a13.55,13.55,0,0,0,2.65-3.47l.07-.13,3.3-.25.95-3.64L89.22,110v-.15a13.5,13.5,0,0,0-.59-4.32l0-.15,2.16-2.5-1.91-3.25-3.22.65-.11-.11a13.55,13.55,0,0,0-3.47-2.65l-.13-.07-.24-3.3L78,93.2l-1.83,2.74h-.15a13.52,13.52,0,0,0-4.33.59l-.14,0L69.08,94.4l-3.25,1.91.65,3.23-.11.1a13.55,13.55,0,0,0-2.65,3.47l-.07.13-3.29.24-1,3.65L62.14,109v.16a13.22,13.22,0,0,0,.58,4.32l.05.14-2.16,2.51,1.9,3.25ZM77.82,93Zm-2.19,25.89a9.51,9.51,0,0,1-2.42-.31A9.41,9.41,0,0,1,78,100.43a10,10,0,0,1,1.87.72.27.27,0,0,1,.12.37.29.29,0,0,1-.37.12,9.16,9.16,0,0,0-1.76-.68,8.88,8.88,0,1,0,6.24,6.11.29.29,0,0,1,.19-.34.27.27,0,0,1,.34.19,9.46,9.46,0,0,1,.06,5,9.43,9.43,0,0,1-9.08,7Z"/><path class="cls-1" d="M75.68,113.11h0a3.63,3.63,0,0,1-2.5-6.23,3.58,3.58,0,0,1,2.54-1h0a3.64,3.64,0,0,1,3.6,3.67,3.64,3.64,0,0,1-1.1,2.56A3.58,3.58,0,0,1,75.68,113.11Zm0-6.72a3.07,3.07,0,0,0-3.08,3,3.07,3.07,0,0,0,3.05,3.12h0a3.09,3.09,0,0,0,0-6.17Z"/><path class="cls-1" d="M51.63,135.26a.39.39,0,0,1-.37-.26l-.5-1.27a6.88,6.88,0,0,1-1.8-.68l-1.21.65a.41.41,0,0,1-.46-.06L46,132.4a.4.4,0,0,1-.09-.46l.55-1.25a6.6,6.6,0,0,1-.8-1.75l-1.31-.4a.4.4,0,0,1-.28-.37L44,126.35a.4.4,0,0,1,.26-.38l1.27-.5a6.88,6.88,0,0,1,.68-1.8l-.65-1.21a.41.41,0,0,1,.06-.46l1.24-1.33a.4.4,0,0,1,.46-.09l1.25.55a6.6,6.6,0,0,1,1.75-.8l.4-1.31a.39.39,0,0,1,.37-.28l1.81-.07a.4.4,0,0,1,.39.26l.49,1.27a7,7,0,0,1,1.81.68l1.21-.65a.41.41,0,0,1,.46.06l1.33,1.24a.41.41,0,0,1,.09.46l-.55,1.25a6.6,6.6,0,0,1,.8,1.75l1.31.4a.41.41,0,0,1,.28.37l.07,1.81a.4.4,0,0,1-.26.39l-1.27.49a7,7,0,0,1-.68,1.81l.65,1.21a.4.4,0,0,1-.07.46l-1.23,1.33a.41.41,0,0,1-.46.09L56,132.8a6.6,6.6,0,0,1-1.75.8l-.4,1.31a.41.41,0,0,1-.37.28l-1.82.07Zm.14-.46ZM49,132.43l.13.07a6.28,6.28,0,0,0,1.92.72l.15,0,.56,1.45,1.61,0,.45-1.5.15,0a6.4,6.4,0,0,0,1.86-.85l.13-.09,1.43.64,1.09-1.18-.73-1.38.07-.13a6.66,6.66,0,0,0,.72-1.92l0-.15,1.45-.56-.05-1.61-1.5-.45,0-.15a6.4,6.4,0,0,0-.85-1.86l-.09-.13.64-1.43-1.18-1.09-1.38.73-.13-.07a6.12,6.12,0,0,0-1.92-.72l-.15,0-.56-1.45-1.61,0-.45,1.5-.15,0a6.15,6.15,0,0,0-1.86.85l-.13.08-1.43-.63-1.09,1.18.73,1.38-.07.13a6,6,0,0,0-.72,1.92l0,.15-1.46.56.06,1.61,1.5.45,0,.15a6.15,6.15,0,0,0,.85,1.86l.08.13-.63,1.43,1.18,1.09Zm-2.6-.27Zm13.72-4.71Zm-15.67-1h0Zm13.72-4.72Zm-5.4-2.63Zm-1.8,0Zm1.29,12.56a4.67,4.67,0,0,1-4.66-4.5,4.59,4.59,0,0,1,1.24-3.34,4.66,4.66,0,0,1,4.24-1.42.27.27,0,0,1,.22.32.26.26,0,0,1-.31.22,4.34,4.34,0,0,0-.88-.06,4.12,4.12,0,1,0,4.26,4,4,4,0,0,0-.66-2.1.29.29,0,0,1,.08-.38.29.29,0,0,1,.39.09,4.69,4.69,0,0,1,.74,2.37,4.59,4.59,0,0,1-1.24,3.34,4.69,4.69,0,0,1-3.25,1.49Z"/><path class="cls-1" d="M181,30.42a1.5,1.5,0,0,1-1.49-1.5V18.18a.27.27,0,1,1,.54,0V28.92a.94.94,0,0,0,.3.69,1,1,0,0,0,.71.26l12.73-.76a.94.94,0,0,0,.89-.94V17.62a.94.94,0,0,0-1-.94l-10.59,1.05a.93.93,0,0,0-.77.55.91.91,0,0,0,.1.94l4,5.58a1,1,0,0,0,.76.39h0a1,1,0,0,0,.76-.38l4.45-5.93a.28.28,0,0,1,.44.33l-4.45,5.93a1.5,1.5,0,0,1-2.41,0l-4-5.57a1.5,1.5,0,0,1-.15-1.5,1.46,1.46,0,0,1,1.21-.87l10.59-1.05a1.54,1.54,0,0,1,1.16.38,1.51,1.51,0,0,1,.49,1.11V28.17a1.5,1.5,0,0,1-1.41,1.49l-12.73.76Z"/><path class="cls-1" d="M196.34,34.51H178.91a3.2,3.2,0,0,1-3.21-3.09L175.22,18a3.23,3.23,0,0,1,2.87-3.31l17.43-1.86a3.22,3.22,0,0,1,3.55,3.1l.48,15.25a3.2,3.2,0,0,1-3.21,3.31Zm-.47-21.12h-.29l-17.43,1.86A2.67,2.67,0,0,0,175.77,18l.48,13.4A2.65,2.65,0,0,0,178.91,34h17.43a2.59,2.59,0,0,0,1.91-.81,2.63,2.63,0,0,0,.75-1.93L198.52,16a2.64,2.64,0,0,0-.91-1.93A2.61,2.61,0,0,0,195.87,13.39Z"/><path class="cls-1" d="M12.66,125.36a51.55,51.55,0,0,1-8.94-.69c-2.34-.48-2.74-1-2.83-1.41-.48-1.88-2-16,.57-18.22a.26.26,0,0,1,.19-.07c3.45.13,20.75.81,21.9,2.31s-2.15,15.46-3.31,17C19.66,125,16.34,125.36,12.66,125.36ZM1.74,105.53c-2.13,2.16-.87,15.42-.32,17.6,0,.09.25.56,2.4,1a51.32,51.32,0,0,0,9.59.68c4,0,6.1-.49,6.39-.86,1.26-1.67,4.27-15.07,3.31-16.33C22.35,106.62,9.65,105.81,1.74,105.53Z"/><path class="cls-1" d="M6,121.44H4.49a.28.28,0,0,1-.27-.28V116.7a.27.27,0,0,1,.27-.27H6a.27.27,0,0,1,.27.27v4.46A.28.28,0,0,1,6,121.44Zm-1.22-.55h1V117h-1Z"/><path class="cls-1" d="M8.92,121.44h-2a.28.28,0,0,1-.27-.28V113.8a.27.27,0,0,1,.27-.27h2a.27.27,0,0,1,.27.27v7.36A.28.28,0,0,1,8.92,121.44Zm-1.77-.55H8.64v-6.81H7.15Z"/><path class="cls-1" d="M12.75,121.44H9.93a.29.29,0,0,1-.28-.28v-8.91a.29.29,0,0,1,.28-.28h2.82a.28.28,0,0,1,.28.28v8.91A.28.28,0,0,1,12.75,121.44Zm-2.55-.55h2.28v-8.37H10.2Z"/><path class="cls-1" d="M17.87,121.44H14.49a.28.28,0,0,1-.28-.28V110.38a.28.28,0,0,1,.28-.28h3.38a.28.28,0,0,1,.27.28v10.78A.28.28,0,0,1,17.87,121.44Zm-3.11-.55H17.6V110.65H14.76Z"/><path class="cls-2" d="M149,41.67a54.3,54.3,0,0,1-8.15-.54c-2.27-.4-2.66-.89-2.75-1.22C137.6,38,137.06,24,139.21,22.08a.29.29,0,0,1,.18-.07c3,0,17.74.2,18.77,1.48s-.45,15.78-1.45,17.17C156.2,41.36,152.75,41.67,149,41.67ZM139.5,22.56c-1.78,2-1.39,15.29-.85,17.2,0,.05.19.45,2.32.83,5.13.9,14.68.6,15.29-.25,1-1.45,2.29-15.48,1.47-16.5C157.14,23.1,147.92,22.63,139.5,22.56Z"/><path class="cls-2" d="M151.72,38.07c-1.29,0-2.76,0-3.91-.09-4.12-.2-6.38-.52-6.71-1-.54-.74-1-7,.14-9.41a1.53,1.53,0,0,1,1.28-1v0l.52,0c1.62-.07,4.64-.19,7.22-.13.07-.11.19-.4.27-.57.22-.55.37-.9.69-.89,3.13.13,3.63.54,3.71,1,.12.63.3,3.52.35,6.15.09,5.44-.4,5.68-.63,5.8A11.81,11.81,0,0,1,151.72,38.07Zm-2.93-11.13c-2.17,0-4.41.09-5.73.15l-.52,0c-.3,0-.58.25-.8.72-1.11,2.31-.57,8.35-.2,8.85.25.23,2.36.57,6.4.75a36.17,36.17,0,0,0,6.46,0c.62-.64.27-9.9,0-11.36,0,0-.29-.39-3.12-.52a4.88,4.88,0,0,0-.25.55c-.22.53-.38.91-.7.91h0Z"/><path class="cls-2" d="M42.85,119h-.28a.27.27,0,0,1-.27-.27.28.28,0,0,1,.27-.28h.28a.28.28,0,0,1,.27.28A.27.27,0,0,1,42.85,119Zm-1.65,0H39.82a.27.27,0,0,1-.27-.27.28.28,0,0,1,.27-.28H41.2a.28.28,0,0,1,.27.28A.27.27,0,0,1,41.2,119Zm-2.75,0H37.08a.28.28,0,0,1-.28-.27.29.29,0,0,1,.28-.28h1.37a.29.29,0,0,1,.28.28A.28.28,0,0,1,38.45,119Zm-2.74,0H34.33a.27.27,0,0,1-.27-.27.28.28,0,0,1,.27-.28h1.38a.28.28,0,0,1,.27.28A.27.27,0,0,1,35.71,119ZM33,119H31.59a.27.27,0,0,1-.28-.27.28.28,0,0,1,.28-.28H33a.28.28,0,0,1,.27.28A.27.27,0,0,1,33,119Zm-2.75,0H28.84a.28.28,0,0,1-.28-.27.29.29,0,0,1,.28-.28h1.37a.29.29,0,0,1,.28.28A.28.28,0,0,1,30.21,119Zm-2.74,0H26.09a.27.27,0,0,1-.27-.27.28.28,0,0,1,.27-.28h1.38a.28.28,0,0,1,.27.28A.27.27,0,0,1,27.47,119Z"/><path class="cls-2" d="M147.16,49.73a.27.27,0,0,1-.27-.27V48.08a.28.28,0,0,1,.55,0v1.38A.27.27,0,0,1,147.16,49.73Zm0-2.74a.28.28,0,0,1-.27-.28V45.34a.28.28,0,1,1,.55,0v1.37A.28.28,0,0,1,147.16,47Zm0-2.75a.27.27,0,0,1-.27-.28V42.59a.28.28,0,0,1,.55,0V44A.27.27,0,0,1,147.16,44.24Z"/><path class="cls-2" d="M174.37,61.69a.28.28,0,0,1-.27-.28V60a.27.27,0,0,1,.27-.27.28.28,0,0,1,.28.27v1.37A.29.29,0,0,1,174.37,61.69Zm0-2.75a.27.27,0,0,1-.27-.27V57.29a.27.27,0,0,1,.27-.27.28.28,0,0,1,.28.27v1.38A.28.28,0,0,1,174.37,58.94Zm0-2.75a.27.27,0,0,1-.27-.27V54.55a.27.27,0,0,1,.27-.28.28.28,0,0,1,.28.28v1.37A.28.28,0,0,1,174.37,56.19Zm0-2.74a.27.27,0,0,1-.27-.28v-.55h1.37a.28.28,0,0,1,.27.28.27.27,0,0,1-.27.27h-.82A.28.28,0,0,1,174.37,53.45Zm14.83-.28h-1.37a.28.28,0,0,1-.28-.27.29.29,0,0,1,.28-.28h.82a.28.28,0,0,1,.55,0Zm-2.75,0h-1.37a.27.27,0,0,1-.27-.27.28.28,0,0,1,.27-.28h1.37a.28.28,0,0,1,.28.28A.27.27,0,0,1,186.45,53.17Zm-2.74,0h-1.37a.27.27,0,0,1-.28-.27.28.28,0,0,1,.28-.28h1.37a.28.28,0,0,1,.27.28A.27.27,0,0,1,183.71,53.17Zm-2.75,0h-1.37a.28.28,0,0,1-.28-.27.29.29,0,0,1,.28-.28H181a.29.29,0,0,1,.28.28A.28.28,0,0,1,181,53.17Zm-2.74,0h-1.38a.27.27,0,0,1-.27-.27.28.28,0,0,1,.27-.28h1.38a.28.28,0,0,1,.27.28A.27.27,0,0,1,178.22,53.17Zm10.71-1.64a.28.28,0,0,1-.28-.28V49.88a.28.28,0,1,1,.55,0v1.37A.28.28,0,0,1,188.93,51.53Zm0-2.75a.27.27,0,0,1-.28-.28V47.13a.28.28,0,0,1,.55,0V48.5A.27.27,0,0,1,188.93,48.78Zm0-2.75a.27.27,0,0,1-.28-.27V44.38a.28.28,0,0,1,.55,0v1.38A.27.27,0,0,1,188.93,46Zm0-2.74a.28.28,0,0,1-.28-.28V41.64a.28.28,0,1,1,.55,0V43A.28.28,0,0,1,188.93,43.29Zm0-2.75a.27.27,0,0,1-.28-.27V38.89a.28.28,0,0,1,.55,0v1.38A.27.27,0,0,1,188.93,40.54Zm0-2.75a.27.27,0,0,1-.28-.27V36.15a.28.28,0,1,1,.55,0v1.37A.27.27,0,0,1,188.93,37.79Z"/><g class="cls-19"><path class="cls-1" d="M262.83,91.38a5.07,5.07,0,1,0-6.31,3.55A5.13,5.13,0,0,0,262.83,91.38Zm-9-2.61a4.32,4.32,0,1,1,2.92,5.43A4.36,4.36,0,0,1,253.81,88.77Z"/><path class="cls-1" d="M254,92.44l-6.16,3.86a.62.62,0,0,0-.16.83l0,.05a.46.46,0,0,0,.67.15l5.86-4.47Z"/></g><path class="cls-1" d="M256.31,100.37a54.4,54.4,0,0,1-8.15-.54c-2.27-.4-2.66-.89-2.75-1.22-.52-1.87-1.06-15.87,1.09-17.83a.24.24,0,0,1,.18-.07h0c3,0,17.74.2,18.77,1.48S265,98,264,99.36C263.49,100.06,260,100.37,256.31,100.37Zm-9.52-19.11c-1.78,2-1.39,15.29-.85,17.2,0,.05.19.45,2.32.82,5.13.9,14.68.61,15.29-.24,1-1.45,2.29-15.48,1.47-16.5C264.43,81.8,255.21,81.33,246.79,81.26Z"/><path class="cls-2" d="M230.43,118.15h-1.37a.28.28,0,1,1,0-.55h1.37a.28.28,0,0,1,0,.55Zm-2.75,0h-1.37a.28.28,0,1,1,0-.55h1.37a.28.28,0,1,1,0,.55Zm-2.74,0h-1.38a.28.28,0,0,1,0-.55h1.38a.28.28,0,0,1,0,.55Zm-2.75,0h-1.37a.28.28,0,1,1,0-.55h1.37a.28.28,0,0,1,0,.55Zm-2.75,0h-1.37a.28.28,0,0,1,0-.55h1.37a.28.28,0,1,1,0,.55Zm-2.74,0h-1.38a.28.28,0,0,1,0-.55h1.38a.28.28,0,0,1,0,.55Zm-2.75,0h-1.37a.28.28,0,1,1,0-.55H214a.28.28,0,1,1,0,.55Zm-2.75,0h-.82v-1.1a.28.28,0,0,1,.55,0v.55h.27a.28.28,0,1,1,0,.55Zm-.55-2.2a.27.27,0,0,1-.27-.27v-1.37a.28.28,0,1,1,.55,0v1.37A.27.27,0,0,1,210.65,116Zm0-2.74a.28.28,0,0,1-.27-.28v-.82a.28.28,0,0,1,0-.55h.55v1.37A.28.28,0,0,1,210.65,113.21Zm-1.64-1.1h-1.38a.28.28,0,0,1,0-.55H209a.28.28,0,0,1,0,.55Zm-2.75,0h-1.37a.28.28,0,1,1,0-.55h1.37a.28.28,0,1,1,0,.55Zm-2.75,0h-1.37a.28.28,0,0,1,0-.55h1.37a.28.28,0,1,1,0,.55Zm-2.74,0h-1.38a.28.28,0,0,1,0-.55h1.38a.28.28,0,0,1,0,.55Zm-2.75,0h-1.37a.28.28,0,1,1,0-.55H198a.28.28,0,1,1,0,.55Zm-2.75,0H193.9a.28.28,0,0,1,0-.55h1.37a.28.28,0,1,1,0,.55Z"/><path class="cls-20" d="M38.43,121.58l-.77.28h0a.25.25,0,1,1-.17-.47h0l.78-.28a.25.25,0,1,1,.17.47Z"/><path class="cls-20" d="M35.66,122.71l-.73.36h0a.25.25,0,0,1-.34-.11.25.25,0,0,1,.12-.34h0l.74-.37a.26.26,0,0,1,.34.11.25.25,0,0,1-.11.34Z"/><path class="cls-20" d="M33,124.15l-.68.44h0a.26.26,0,0,1-.28-.44h0l.7-.45a.26.26,0,0,1,.35.08.24.24,0,0,1-.07.35Z"/><path class="cls-20" d="M30.6,125.87l-.64.52h0a.26.26,0,1,1-.33-.4h0l.65-.52a.25.25,0,0,1,.36,0,.27.27,0,0,1,0,.37Z"/><path class="cls-20" d="M28.35,127.85l-.58.58h0a.25.25,0,0,1-.37,0,.26.26,0,0,1,0-.37h0l.58-.59a.27.27,0,0,1,.37,0,.25.25,0,0,1,0,.37Z"/><path class="cls-20" d="M26.32,130.05l-.52.63h0a.26.26,0,0,1-.37,0,.27.27,0,0,1,0-.37h0l.53-.65a.27.27,0,0,1,.41.34Z"/><path class="cls-20" d="M24.51,132.43l-.46.68h0a.27.27,0,0,1-.37.07.26.26,0,0,1-.08-.37h0l.46-.69a.28.28,0,0,1,.38-.08.28.28,0,0,1,.07.38Z"/><path class="cls-20" d="M22.93,135l-.38.72h0a.28.28,0,0,1-.37.11.27.27,0,0,1-.12-.37h0l.39-.73a.26.26,0,0,1,.37-.11.27.27,0,0,1,.11.36Z"/><path class="cls-20" d="M21.61,137.67l-.32.75h0a.27.27,0,0,1-.36.14.28.28,0,0,1-.15-.36h0l.33-.76a.28.28,0,0,1,.36-.15.27.27,0,0,1,.14.36Z"/><path class="cls-20" d="M20.55,140.46l-.25.78h0a.27.27,0,0,1-.35.18.28.28,0,0,1-.18-.35h0l.25-.79a.27.27,0,0,1,.35-.18.28.28,0,0,1,.18.35Z"/><path class="cls-20" d="M19.76,143.35l-.17.8h0a.29.29,0,0,1-.34.22A.28.28,0,0,1,19,144h0l.17-.81a.28.28,0,1,1,.55.11Z"/><path class="cls-20" d="M19.25,146.3l-.08.81h0a.28.28,0,0,1-.32.25.28.28,0,0,1-.25-.31h0l.09-.83a.28.28,0,1,1,.56.06Z"/><path class="cls-20" d="M19.05,149.28v.82h0a.29.29,0,0,1-.58,0h0v-.84a.28.28,0,0,1,.28-.28.29.29,0,0,1,.29.29Z"/><path class="cls-20" d="M19.16,152.27l.08.81h0a.29.29,0,0,1-.58.06h0l-.08-.83a.29.29,0,0,1,.26-.32.31.31,0,0,1,.32.26Z"/><path class="cls-20" d="M19.56,155.24l.16.8h0a.29.29,0,1,1-.57.12h0l-.16-.82a.28.28,0,0,1,.23-.34.29.29,0,0,1,.34.23Z"/><path class="cls-20" d="M20.25,158.15l.23.78h0a.29.29,0,0,1-.2.37.31.31,0,0,1-.37-.2h0l-.23-.8a.29.29,0,0,1,.2-.37.31.31,0,0,1,.37.2Z"/><path class="cls-20" d="M21.2,161l.3.76h0a.3.3,0,0,1-.16.39A.29.29,0,0,1,21,162h0l-.31-.77a.3.3,0,1,1,.55-.22Z"/><path class="cls-20" d="M22.39,163.73l.37.73h0a.29.29,0,0,1-.13.4.3.3,0,0,1-.41-.13h0l-.37-.74a.31.31,0,0,1,.14-.41.3.3,0,0,1,.4.14Z"/><path class="cls-20" d="M23.82,166.36l.43.7h0a.3.3,0,0,1-.1.42.31.31,0,0,1-.42-.1h0l-.43-.71a.31.31,0,0,1,.1-.42.3.3,0,0,1,.42.1Z"/><path class="cls-20" d="M25.46,168.87l.49.66h0a.32.32,0,0,1-.07.44.31.31,0,0,1-.43-.07h0l-.49-.67a.31.31,0,0,1,.07-.43.31.31,0,0,1,.43.06Z"/><path class="cls-20" d="M27.3,171.23l.54.62h0a.31.31,0,0,1,0,.44.32.32,0,0,1-.44,0h0l-.54-.63a.3.3,0,0,1,0-.43.31.31,0,0,1,.44,0Z"/><path class="cls-20" d="M29.33,173.44l.58.57h0a.32.32,0,0,1-.45.45h0l-.59-.59a.31.31,0,0,1,0-.44.31.31,0,0,1,.44,0Z"/><path class="cls-20" d="M31.52,175.48l.63.52h0a.31.31,0,0,1,0,.45.32.32,0,0,1-.44,0h0l-.63-.54a.33.33,0,0,1,0-.45.32.32,0,0,1,.45,0Z"/><path class="cls-20" d="M33.87,177.34l.67.47h0a.32.32,0,0,1,.08.45.33.33,0,0,1-.45.08h0l-.67-.48a.31.31,0,0,1-.08-.44.32.32,0,0,1,.45-.08Z"/><path class="cls-20" d="M36.37,179l.7.42h0a.32.32,0,0,1,.11.44.32.32,0,0,1-.44.12h0l-.72-.43a.32.32,0,1,1,.33-.55Z"/><path class="cls-20" d="M39,180.43l.73.36h0a.33.33,0,0,1,.15.44.32.32,0,0,1-.43.15h0L38.7,181a.33.33,0,0,1-.15-.44.32.32,0,0,1,.43-.15Z"/><path class="cls-20" d="M41.72,181.66l.76.29h0a.34.34,0,0,1,.19.43.33.33,0,0,1-.43.19h0l-.77-.3a.33.33,0,0,1-.19-.43.34.34,0,0,1,.43-.19Z"/><path class="cls-20" d="M44.54,182.66l.79.24h0a.33.33,0,0,1,.23.41.34.34,0,0,1-.42.23h0l-.79-.24a.33.33,0,1,1,.19-.63Z"/><path class="cls-20" d="M47.43,183.45l.8.17h0a.34.34,0,0,1-.15.66h0l-.81-.18a.33.33,0,0,1-.25-.4.34.34,0,0,1,.4-.26Z"/><path class="cls-20" d="M50.38,184l.8.12h0a.34.34,0,0,1,.29.38.35.35,0,0,1-.39.29h0l-.82-.13a.33.33,0,0,1-.28-.38.33.33,0,0,1,.38-.28Z"/><path class="cls-20" d="M53.35,184.38l.82.06h0a.34.34,0,1,1-.05.68h0l-.83-.06a.34.34,0,0,1-.31-.37.33.33,0,0,1,.36-.31Z"/><path class="cls-20" d="M56.34,184.53h.83a.34.34,0,0,1,.34.34.35.35,0,0,1-.35.35h-.83a.35.35,0,1,1,0-.69Z"/><path class="cls-20" d="M59.34,184.48l.82,0h0a.35.35,0,1,1,0,.7h0l-.83,0a.34.34,0,0,1-.36-.32.35.35,0,0,1,.33-.37Z"/><path class="cls-20" d="M62.33,184.23l.81-.1h0a.36.36,0,0,1,.39.31.35.35,0,0,1-.31.38h0l-.82.11a.35.35,0,0,1-.09-.7Z"/><path class="cls-20" d="M65.29,183.79l.81-.15h0a.35.35,0,0,1,.41.28.35.35,0,0,1-.28.41h0l-.81.15a.35.35,0,0,1-.41-.28.34.34,0,0,1,.28-.4Z"/><path class="cls-20" d="M68.23,183.17,69,183h0a.35.35,0,0,1,.18.68h0l-.81.2a.34.34,0,0,1-.42-.25.34.34,0,0,1,.25-.42Z"/><path class="cls-20" d="M71.11,182.35l.78-.26h0a.35.35,0,0,1,.45.23.35.35,0,0,1-.23.44h0l-.79.26a.35.35,0,0,1-.22-.67Z"/><path class="cls-20" d="M73.94,181.35l.75-.31h0a.35.35,0,0,1,.46.19.36.36,0,0,1-.2.46h0l-.77.31a.35.35,0,0,1-.26-.65Z"/><path class="cls-20" d="M76.69,180.16l.74-.35h0a.36.36,0,0,1,.47.17.37.37,0,0,1-.17.47h0l-.75.35a.35.35,0,0,1-.47-.16.35.35,0,0,1,.17-.47Z"/><path class="cls-20" d="M79.37,178.82l.72-.39h0a.36.36,0,0,1,.48.14.35.35,0,0,1-.14.48h0l-.73.4a.35.35,0,0,1-.34-.62Z"/><path class="cls-20" d="M82,177.33l.7-.43h0a.36.36,0,1,1,.37.61h0l-.7.43a.36.36,0,0,1-.38-.6Z"/><path class="cls-20" d="M84.5,175.7l.68-.46h0a.35.35,0,0,1,.49.09.35.35,0,0,1-.09.5h0l-.68.47a.35.35,0,0,1-.49-.09.37.37,0,0,1,.09-.5Z"/><path class="cls-20" d="M87,174l.65-.49h0a.35.35,0,0,1,.5.07A.34.34,0,0,1,88,174h0l-.66.5A.35.35,0,1,1,87,174Z"/><path class="cls-20" d="M89.32,172.1l.63-.52h0a.35.35,0,0,1,.5,0,.34.34,0,0,1,0,.5h0l-.63.52a.35.35,0,0,1-.5,0,.36.36,0,0,1,0-.51Z"/><path class="cls-20" d="M91.61,170.16l.62-.55h0a.36.36,0,0,1,.47.54h0l-.62.54a.35.35,0,1,1-.47-.53Z"/><path class="cls-20" d="M93.84,168.14l.6-.57h0a.36.36,0,0,1,.49.52h0l-.6.57a.36.36,0,1,1-.49-.52Z"/><path class="cls-20" d="M96,166.05l.58-.58h0a.36.36,0,0,1,.51,0,.35.35,0,0,1,0,.5h0l-.59.58a.35.35,0,0,1-.5,0,.36.36,0,0,1,0-.51Z"/><path class="cls-20" d="M98.13,163.91l.57-.6h0a.36.36,0,1,1,.52.5h0l-.58.59a.35.35,0,1,1-.51-.49Z"/><path class="cls-20" d="M100.2,161.72l.56-.6h0a.34.34,0,0,1,.5,0,.35.35,0,0,1,0,.51h0l-.56.6a.36.36,0,0,1-.51,0,.37.37,0,0,1,0-.51Z"/><path class="cls-20" d="M102.25,159.5l.55-.61a.36.36,0,1,1,.53.48h0l-.55.61a.36.36,0,0,1-.51,0A.35.35,0,0,1,102.25,159.5Z"/><path class="cls-20" d="M104.26,157.25l.55-.61a.36.36,0,0,1,.54.48h0l-.55.61a.35.35,0,0,1-.51,0A.36.36,0,0,1,104.26,157.25Z"/><path class="cls-20" d="M106.26,155l.54-.62a.37.37,0,0,1,.55.48h0l-.55.62a.36.36,0,1,1-.54-.48Z"/><path class="cls-20" d="M108.25,152.72l.55-.62a.36.36,0,1,1,.54.48h0l-.54.62a.37.37,0,0,1-.55-.48Z"/><path class="cls-20" d="M110.24,150.45l.55-.62a.36.36,0,0,1,.51,0,.35.35,0,0,1,0,.51h0l-.54.62a.37.37,0,0,1-.55-.48Z"/><path class="cls-20" d="M112.25,148.18l.55-.61a.36.36,0,1,1,.54.48h0l-.55.62a.36.36,0,1,1-.54-.49Z"/><path class="cls-20" d="M114.27,145.93l.55-.61a.37.37,0,0,1,.52,0,.35.35,0,0,1,0,.51h0l-.55.6a.38.38,0,0,1-.52,0A.37.37,0,0,1,114.27,145.93Z"/><path class="cls-20" d="M116.32,143.71l.56-.61a.37.37,0,0,1,.52,0,.36.36,0,0,1,0,.51h0l-.56.6h0a.37.37,0,0,1-.52,0A.36.36,0,0,1,116.32,143.71Z"/><path class="cls-20" d="M118.4,141.51l.58-.59a.35.35,0,0,1,.51,0,.37.37,0,0,1,0,.52h0l-.57.59h0a.36.36,0,1,1-.52-.51Z"/><path class="cls-20" d="M120.53,139.36l.59-.58a.37.37,0,0,1,.52,0,.37.37,0,0,1,0,.52h0l-.59.58h0a.36.36,0,0,1-.51-.52Z"/><path class="cls-20" d="M122.71,137.25l.61-.56a.35.35,0,0,1,.51,0,.36.36,0,0,1,0,.51h0l-.6.56h0a.37.37,0,0,1-.52,0A.37.37,0,0,1,122.71,137.25Z"/><path class="cls-20" d="M125,135.21l.63-.55a.37.37,0,0,1,.48.56h0l-.62.54h0a.37.37,0,1,1-.49-.55Z"/><path class="cls-20" d="M127.26,133.24l.64-.52a.37.37,0,0,1,.52.05.38.38,0,0,1,0,.52h0l-.63.52h0a.36.36,0,0,1-.51-.05A.37.37,0,0,1,127.26,133.24Z"/><path class="cls-20" d="M129.64,131.36l.66-.5a.37.37,0,1,1,.45.59h0l-.65.49h0a.36.36,0,0,1-.51-.08A.37.37,0,0,1,129.64,131.36Z"/><path class="cls-20" d="M132.1,129.57l.68-.46a.37.37,0,0,1,.52.09.38.38,0,0,1-.1.52h0l-.68.46h0a.37.37,0,0,1-.51-.09A.38.38,0,0,1,132.1,129.57Z"/><path class="cls-20" d="M134.64,127.91l.71-.44a.37.37,0,0,1,.5.12.36.36,0,0,1-.12.51h0l-.7.42h0a.37.37,0,0,1-.51-.13A.36.36,0,0,1,134.64,127.91Z"/><path class="cls-20" d="M137.26,126.36l.72-.4a.37.37,0,1,1,.36.65h0l-.72.4h0a.37.37,0,1,1-.35-.65Z"/><path class="cls-20" d="M139.94,124.94l.75-.36a.36.36,0,0,1,.49.17.37.37,0,0,1-.17.5h0l-.74.36h0a.37.37,0,0,1-.33-.67Z"/><path class="cls-20" d="M142.69,123.65l.76-.33a.38.38,0,0,1,.49.19.37.37,0,0,1-.19.49h0l-.76.32h0a.36.36,0,0,1-.49-.19A.37.37,0,0,1,142.69,123.65Z"/><path class="cls-20" d="M145.5,122.49l.77-.3a.38.38,0,0,1,.27.7h0l-.76.29h0a.37.37,0,0,1-.48-.21A.38.38,0,0,1,145.5,122.49Z"/><path class="cls-20" d="M148.35,121.45l.79-.26a.36.36,0,0,1,.47.24.37.37,0,0,1-.23.47h0l-.78.26h0a.37.37,0,0,1-.24-.71Z"/><path class="cls-20" d="M151.25,120.54l.8-.23a.38.38,0,0,1,.46.26.37.37,0,0,1-.26.46h0l-.79.23h0A.39.39,0,0,1,151,121,.38.38,0,0,1,151.25,120.54Z"/><path class="cls-20" d="M154.19,119.76l.8-.19a.37.37,0,0,1,.45.27.38.38,0,0,1-.27.46h0l-.8.18h0a.38.38,0,0,1-.45-.28A.37.37,0,0,1,154.19,119.76Z"/><path class="cls-20" d="M157.15,119.1,158,119a.38.38,0,0,1,.44.29.38.38,0,0,1-.3.44h0l-.8.16h0a.37.37,0,0,1-.44-.3A.39.39,0,0,1,157.15,119.1Z"/><path class="cls-20" d="M160.14,118.58l.82-.13a.38.38,0,1,1,.11.75h0l-.81.12h0a.37.37,0,0,1-.11-.74Z"/><path class="cls-20" d="M163.15,118.18l.83-.09a.38.38,0,0,1,.08.75h0l-.81.08h0a.36.36,0,0,1-.41-.33A.37.37,0,0,1,163.15,118.18Z"/><path class="cls-20" d="M166.18,117.9l.82-.05a.4.4,0,0,1,.41.35.38.38,0,0,1-.36.4h0l-.82.06h0a.38.38,0,0,1,0-.76Z"/><path class="cls-20" d="M169.21,117.76l.83,0a.39.39,0,0,1,.39.37.39.39,0,0,1-.37.39h-.83a.38.38,0,1,1,0-.75Z"/><path class="cls-20" d="M172.25,117.74l.83,0a.38.38,0,0,1,.37.39.39.39,0,0,1-.39.37h0l-.82,0h0a.38.38,0,1,1,0-.76Z"/><path class="cls-20" d="M175.28,117.85l.83.05a.38.38,0,0,1,.35.41.37.37,0,0,1-.4.35h0l-.82,0h0a.38.38,0,1,1,0-.76Z"/><path class="cls-20" d="M178.31,118.09l.82.09a.38.38,0,0,1,.34.42.37.37,0,0,1-.42.33h0l-.81-.08h0a.38.38,0,1,1,.08-.76Z"/><path class="cls-20" d="M181.33,118.46l.82.12a.39.39,0,0,1,.32.43.38.38,0,0,1-.44.32h0l-.81-.12h0a.38.38,0,1,1,.12-.75Z"/><path class="cls-20" d="M184.32,119l.82.16a.39.39,0,0,1,.3.45.38.38,0,0,1-.45.3h0l-.81-.16h0a.37.37,0,0,1-.3-.44A.38.38,0,0,1,184.32,119Z"/><path class="cls-20" d="M187.3,119.58l.8.19a.39.39,0,0,1-.18.75h0l-.8-.19h0a.39.39,0,0,1-.29-.46A.39.39,0,0,1,187.3,119.58Z"/><path class="cls-20" d="M190.24,120.33l.79.23a.39.39,0,0,1,.27.48.39.39,0,0,1-.48.26h0l-.79-.23h0a.39.39,0,0,1-.27-.47A.39.39,0,0,1,190.24,120.33Z"/><path class="cls-20" d="M193.14,121.22l.79.26a.39.39,0,0,1,.24.49.38.38,0,0,1-.48.24h0l-.78-.26h0a.39.39,0,0,1-.24-.49A.38.38,0,0,1,193.14,121.22Z"/><path class="cls-20" d="M196,122.23l.77.3a.39.39,0,0,1-.28.72h0l-.77-.3h0a.38.38,0,0,1-.22-.5A.4.4,0,0,1,196,122.23Z"/><path class="cls-20" d="M198.82,123.38l.76.33a.39.39,0,0,1-.31.71h0l-.75-.34h0a.38.38,0,0,1,.31-.7Z"/><path class="cls-20" d="M201.58,124.65l.74.37a.4.4,0,0,1,.18.52.39.39,0,0,1-.52.17h0l-.73-.36h0a.38.38,0,0,1-.18-.51A.4.4,0,0,1,201.58,124.65Z"/><path class="cls-20" d="M204.28,126.06l.72.4a.39.39,0,0,1,.15.53.4.4,0,0,1-.53.15h0l-.72-.4h0a.39.39,0,1,1,.38-.67Z"/><path class="cls-20" d="M206.9,127.59l.71.44a.39.39,0,0,1,.12.53.4.4,0,0,1-.54.13h0l-.69-.43h0a.4.4,0,0,1-.12-.54A.39.39,0,0,1,206.9,127.59Z"/><path class="cls-20" d="M209.45,129.24l.69.46a.39.39,0,0,1,.1.54.4.4,0,0,1-.54.1h0l-.68-.46h0a.39.39,0,0,1-.1-.54A.38.38,0,0,1,209.45,129.24Z"/><path class="cls-20" d="M212,131l.67.47a.38.38,0,0,1,.09.54.39.39,0,0,1-.54.1h0l-.67-.48h0A.39.39,0,1,1,212,131Z"/><path class="cls-20" d="M214.41,132.71l.67.49a.38.38,0,0,1,.08.54.39.39,0,0,1-.54.09h0l-.67-.48a.39.39,0,0,1,.46-.64Z"/><path class="cls-20" d="M216.86,134.48l.67.48a.39.39,0,0,1-.46.64h0l-.67-.49a.39.39,0,0,1-.09-.54A.41.41,0,0,1,216.86,134.48Z"/><path class="cls-20" d="M219.32,136.23l.67.47h0a.38.38,0,0,1,.1.54.39.39,0,0,1-.54.1h0l-.68-.47a.39.39,0,1,1,.45-.64Z"/><path class="cls-20" d="M221.81,137.92l.68.45h0a.39.39,0,0,1,.11.54.4.4,0,0,1-.54.12h0l-.69-.45a.4.4,0,0,1-.12-.54.39.39,0,0,1,.54-.11Z"/><path class="cls-20" d="M224.35,139.52l.7.42h0a.4.4,0,0,1,.14.54.39.39,0,0,1-.54.14h0l-.71-.43a.39.39,0,1,1,.39-.67Z"/><path class="cls-20" d="M227,141l.73.38h0a.39.39,0,1,1-.36.7h0l-.74-.39a.39.39,0,0,1-.17-.52A.39.39,0,0,1,227,141Z"/><path class="cls-20" d="M229.65,142.3l.75.32h0a.39.39,0,0,1,.21.51.4.4,0,0,1-.52.21h0l-.76-.33a.38.38,0,0,1-.21-.51.39.39,0,0,1,.51-.21Z"/><path class="cls-20" d="M232.44,143.38l.77.25h0a.38.38,0,0,1,.25.49.39.39,0,0,1-.49.26h0l-.8-.26a.39.39,0,0,1-.25-.49.4.4,0,0,1,.5-.26Z"/><path class="cls-20" d="M235.3,144.19l.8.17h0a.4.4,0,0,1,.31.46.4.4,0,0,1-.47.31h0l-.82-.17a.39.39,0,0,1-.3-.47.38.38,0,0,1,.46-.3Z"/><path class="cls-20" d="M238.24,144.67l.81.08h0a.39.39,0,1,1-.07.78h0l-.84-.07a.4.4,0,0,1,.07-.79Z"/><path class="cls-20" d="M241.2,144.8l.81,0h0a.4.4,0,0,1,.41.38.39.39,0,0,1-.38.41h0l-.84,0a.4.4,0,0,1,0-.79Z"/><path class="cls-20" d="M244.16,144.53l.8-.14h0a.4.4,0,0,1,.14.78h0l-.83.14a.39.39,0,0,1-.46-.32.4.4,0,0,1,.32-.46Z"/><path class="cls-20" d="M247.06,143.89l.77-.23h0a.4.4,0,0,1,.49.27.38.38,0,0,1-.26.49h0l-.8.24a.39.39,0,1,1-.23-.75Z"/><path class="cls-20" d="M249.86,142.91l.75-.33h0a.39.39,0,0,1,.52.2.4.4,0,0,1-.2.53h0l-.77.33a.4.4,0,0,1-.32-.73Z"/><path class="cls-20" d="M252.54,141.61l.7-.41h0a.4.4,0,0,1,.55.14.41.41,0,0,1-.15.55h0l-.72.41a.4.4,0,1,1-.4-.69Z"/><path class="cls-20" d="M255.06,140l.66-.48h0a.42.42,0,0,1,.56.09.4.4,0,0,1-.09.56h0l-.68.49a.39.39,0,0,1-.55-.09.4.4,0,0,1,.09-.56Z"/><path class="cls-20" d="M257.41,138.2l.61-.54h0a.4.4,0,1,1,.53.6h0l-.62.55a.4.4,0,1,1-.53-.6Z"/><path class="cls-20" d="M259.57,136.14l.56-.6h0a.4.4,0,0,1,.57,0,.41.41,0,0,1,0,.57h0l-.57.61a.4.4,0,0,1-.58-.54Z"/><path class="cls-20" d="M261.52,133.88l.5-.64h0a.4.4,0,1,1,.64.48h0l-.51.67a.4.4,0,0,1-.63-.49Z"/><path class="cls-20" d="M263.24,131.45l.43-.69h0a.4.4,0,1,1,.68.42h0l-.44.71a.4.4,0,0,1-.68-.42Z"/><path class="cls-20" d="M264.72,128.86l.35-.73h0a.41.41,0,0,1,.54-.19.4.4,0,0,1,.18.54h0l-.36.75a.41.41,0,0,1-.54.19.4.4,0,0,1-.19-.54Z"/><path class="cls-20" d="M265.92,126.13l.28-.76h0a.4.4,0,0,1,.52-.24.41.41,0,0,1,.24.52h0l-.29.78a.39.39,0,0,1-.51.24.41.41,0,0,1-.25-.51Z"/><path class="cls-20" d="M266.83,123.3l.2-.79h0a.4.4,0,1,1,.78.2h0l-.2.81a.42.42,0,0,1-.49.29.4.4,0,0,1-.29-.49Z"/><path class="cls-20" d="M267.46,120.38l.13-.8h0a.41.41,0,0,1,.46-.34.41.41,0,0,1,.34.46h0l-.13.82a.41.41,0,0,1-.46.34.41.41,0,0,1-.34-.47Z"/><path class="cls-20" d="M267.83,117.42l.05-.81h0a.42.42,0,0,1,.43-.38.4.4,0,0,1,.38.43h0l-.06.84a.39.39,0,0,1-.43.37.4.4,0,0,1-.37-.43Z"/><path class="cls-20" d="M267.94,114.44l0-.82h0a.42.42,0,0,1,.4-.41.41.41,0,0,1,.41.4h0l0,.83a.42.42,0,0,1-.4.42.4.4,0,0,1-.41-.4Z"/><path class="cls-20" d="M267.8,111.45l-.08-.81h0a.4.4,0,0,1,.36-.44.41.41,0,0,1,.45.37h0l.08.82a.41.41,0,1,1-.81.08Z"/><path class="cls-20" d="M267.42,108.49l-.14-.8h0a.41.41,0,0,1,.8-.14h0l.15.82a.41.41,0,0,1-.33.47.4.4,0,0,1-.47-.33Z"/><path class="cls-20" d="M266.83,105.56l-.2-.79h0a.41.41,0,1,1,.79-.2h0l.2.81a.4.4,0,0,1-.29.49.41.41,0,0,1-.5-.29Z"/><path class="cls-20" d="M266,102.68l-.26-.78h0a.41.41,0,0,1,.78-.25h0l.26.79a.41.41,0,0,1-.27.51.4.4,0,0,1-.51-.26Z"/><path class="cls-20" d="M265,99.85l-.31-.75h0a.41.41,0,0,1,.76-.31h0l.31.78a.41.41,0,1,1-.76.3Z"/><path class="cls-20" d="M263.84,97.11l-.35-.74h0a.41.41,0,0,1,.2-.54.39.39,0,0,1,.54.19h0l.36.75a.4.4,0,1,1-.73.35Z"/><path class="cls-20" d="M262.48,94.44l-.4-.71h0a.4.4,0,0,1,.15-.56.41.41,0,0,1,.56.16h0l.41.72a.41.41,0,0,1-.16.56.42.42,0,0,1-.56-.15Z"/><path class="cls-20" d="M261,91.87l-.45-.69h0a.41.41,0,0,1,.69-.44h0l.45.69a.41.41,0,1,1-.69.45Z"/><path class="cls-20" d="M259.26,89.39l-.49-.65h0a.41.41,0,1,1,.65-.5c.17.22.34.44.5.67a.4.4,0,0,1-.09.57.4.4,0,0,1-.57-.08Z"/><path class="cls-20" d="M257.4,87.05l-.54-.61h0a.4.4,0,1,1,.61-.53l.55.62a.41.41,0,0,1,0,.58.4.4,0,0,1-.57,0h0Z"/><path class="cls-20" d="M255.38,84.83l-.57-.58h0a.4.4,0,0,1,.58-.55l.57.59a.4.4,0,0,1,0,.57.41.41,0,0,1-.57,0h0Z"/><path class="cls-20" d="M253.26,82.71l-.59-.57h0a.39.39,0,1,1,.54-.57l.6.57a.4.4,0,0,1,0,.56.4.4,0,0,1-.56,0h0Z"/><path class="cls-20" d="M251.06,80.66l-.61-.55h0a.39.39,0,0,1,0-.55.38.38,0,0,1,.55,0l.61.55a.38.38,0,0,1,0,.55.39.39,0,0,1-.55,0Z"/><path class="cls-20" d="M248.8,78.67l-.62-.53h0a.38.38,0,1,1,.5-.58l.63.53a.39.39,0,0,1,0,.54.38.38,0,0,1-.55,0Z"/><path class="cls-20" d="M246.49,76.74l-.64-.52h0a.38.38,0,0,1-.06-.53.37.37,0,0,1,.53-.06l.65.52a.38.38,0,0,1,.06.53.39.39,0,0,1-.54.06Z"/><path class="cls-20" d="M244.14,74.86l-.65-.51h0a.37.37,0,0,1-.07-.52.38.38,0,0,1,.52-.07l.65.51a.36.36,0,0,1,.07.52.37.37,0,0,1-.52.07Z"/><path class="cls-20" d="M241.75,73l-.66-.5h0A.34.34,0,0,1,241,72a.35.35,0,0,1,.49-.08l.67.49a.36.36,0,0,1-.43.58Z"/><path class="cls-20" d="M239.33,71.22l-.67-.48h0a.34.34,0,0,1,.39-.55l.68.48a.34.34,0,1,1-.4.55Z"/><path class="cls-20" d="M236.87,69.47,236.2,69h0a.32.32,0,0,1,.37-.53l.68.46a.34.34,0,0,1,.09.46.31.31,0,0,1-.45.08Z"/><path class="cls-20" d="M234.38,67.77l-.68-.46h0a.3.3,0,1,1,.33-.51l.7.45a.31.31,0,0,1-.34.52Z"/><path class="cls-20" d="M231.86,66.11l-.69-.44h0a.28.28,0,0,1-.09-.4.3.3,0,0,1,.4-.09l.7.44a.28.28,0,0,1,.09.4.29.29,0,0,1-.4.1h0Z"/><path class="cls-20" d="M229.31,64.51l-.7-.43h0a.28.28,0,0,1-.09-.37.27.27,0,0,1,.36-.09l.71.42a.27.27,0,1,1-.27.47Z"/><path class="cls-20" d="M226.73,63l-.72-.41h0a.25.25,0,0,1-.09-.33.24.24,0,0,1,.32-.09l.73.4a.26.26,0,0,1,.09.34.24.24,0,0,1-.33.09Z"/><path class="cls-20" d="M224.1,61.49l-.73-.39h0a.21.21,0,0,1-.09-.29.21.21,0,0,1,.28-.09l.74.38a.21.21,0,0,1,.09.29.22.22,0,0,1-.29.1Z"/><path class="cls-20" d="M221.42,60.11l-.74-.36h0a.18.18,0,0,1-.08-.23.17.17,0,0,1,.23-.09l.76.34a.19.19,0,0,1-.16.34Z"/><polygon class="cls-21" points="219.02 50.54 218 54.84 215.53 52.3 219.02 50.54"/><path class="cls-1" d="M200.28,43.52l9.2,12.91a1.11,1.11,0,0,0,1.59.24l12.62-9.73a.43.43,0,0,0,.16-.47.45.45,0,0,0-.38-.33Z"/><polygon class="cls-21" points="219.02 50.54 200.28 43.52 216.99 52.12 216.76 53.32 219.02 50.54"/><polygon class="cls-21" points="215.77 53.04 218 54.84 216.99 52.12 215.77 53.04"/><path class="cls-22" d="M97.09,44A41.7,41.7,0,0,0,67.41,60.33c-6.93,9.3-9.6,21-11.72,32.41a42,42,0,0,1-2.63,9.85c-2.55,5.61-7.44,9.73-11.57,14.3C31,128.56,25.56,144.34,25.69,160c.07,13.79,4.59,34.5,18.14,41.07A97,97,0,0,0,108,208c13.59-3.24,26.76-9.48,40.73-9.15s27.12,7.23,41.08,7.91a47.43,47.43,0,0,0,40.58-20.07A65.15,65.15,0,0,0,239,167.3a109.22,109.22,0,0,0,4.06-25.52c1-27.49-17.44-54.13-40.37-67.87C151.49,43.28,111.27,42.83,97.09,44Z"/><path class="cls-23" d="M218.72,198.07s-8.53-44.69-1.93-65.94c5.88-19,16-45.12,18.06-50.52a.44.44,0,0,1,.82,0c1.19,2.9,12.85,41.58-2.37,75.6C214.89,198.36,218.72,198.07,218.72,198.07Z"/><path class="cls-24" d="M235.34,95.79c-.34,3.21-.77,6.4-1.24,9.59s-1,6.36-1.6,9.53-1.22,6.33-1.92,9.47-1.46,6.28-2.27,9.4-1.7,6.22-2.65,9.3-2,6.13-3.11,9.16-2.35,6-3.68,8.95-2.79,5.82-4.38,8.63a.23.23,0,0,1-.33.09.24.24,0,0,1-.09-.32h0c1.59-2.79,3-5.66,4.39-8.58s2.55-5.9,3.69-8.91,2.16-6.06,3.13-9.13,1.85-6.16,2.68-9.27,1.58-6.24,2.29-9.38,1.35-6.29,1.94-9.46,1.14-6.33,1.63-9.51.93-6.38,1.27-9.57h0a.13.13,0,1,1,.25,0Z"/><path class="cls-2" d="M192.52,167s-11.32-44.07-6.08-65.7c4.68-19.3,13.09-46,14.85-51.55a.44.44,0,0,1,.81-.06c2.84,5.84,16.64,37.5,2.41,75.6C188.72,167.5,192.52,167,192.52,167Z"/><path class="cls-25" d="M202.67,63.84c-.13,3.22-.36,6.44-.64,9.65s-.61,6.41-1,9.61-.82,6.39-1.32,9.58-1.06,6.36-1.67,9.52-1.31,6.31-2.06,9.45-1.61,6.24-2.53,9.33-2,6.15-3.1,9.17-2.43,6-3.83,8.89a.24.24,0,0,1-.32.11.25.25,0,0,1-.12-.32h0c1.4-2.89,2.67-5.85,3.83-8.85s2.17-6,3.12-9.12,1.78-6.18,2.55-9.31,1.46-6.26,2.09-9.42,1.19-6.33,1.7-9.5,1-6.37,1.34-9.57.74-6.39,1-9.6.53-6.42.67-9.63h0a.13.13,0,1,1,.25,0Z"/><path class="cls-10" d="M266.44,135.69c-8,2.2-53.79,16.9-47.72,62.38,0,0,32.66-1.91,48.59-61.53A.7.7,0,0,0,266.44,135.69Z"/><path class="cls-26" d="M261.47,142.4c-2.06,1.65-4.08,3.34-6.09,5s-4,3.45-6,5.2-3.91,3.54-5.84,5.34-3.82,3.63-5.7,5.49c-3.74,3.71-7.37,7.54-10.79,11.55q-2.57,3-4.91,6.19a66.83,66.83,0,0,0-4.32,6.6h0a.24.24,0,0,1-.32.09.25.25,0,0,1-.1-.33h0a68.43,68.43,0,0,1,4.38-6.63c1.57-2.12,3.23-4.18,5-6.18,3.44-4,7.1-7.83,10.86-11.54,1.89-1.85,3.79-3.67,5.73-5.47s3.89-3.57,5.87-5.31,4-3.48,6-5.18,4-3.38,6.12-5a.11.11,0,0,1,.14,0,.1.1,0,0,1,0,.14Z"/><path class="cls-10" d="M30.45,96.3a.24.24,0,0,0-.47.09c.42,5.1.32,20.22-3.32,29.32-6.81,17-8.11,67.9,30.93,75.87,0,0-5.25-15-9.86-39.44S33.15,105,30.45,96.3Z"/><path class="cls-2" d="M33.22,120.82c-.18,1.49-.29,3-.38,4.49s-.15,3-.19,4.51c-.07,3,0,6,.11,9a123.79,123.79,0,0,0,2.09,17.9,96.24,96.24,0,0,0,5,17.28,72.55,72.55,0,0,0,8.61,15.75.3.3,0,1,1-.49.35h0a73.25,73.25,0,0,1-8.6-15.91,95.79,95.79,0,0,1-5-17.39,121.87,121.87,0,0,1-2-18c-.12-3-.15-6-.06-9,0-1.5.11-3,.2-4.51s.22-3,.41-4.51a.14.14,0,0,1,.15-.12.13.13,0,0,1,.11.15Z"/><path class="cls-1" d="M124.79,57.5a.38.38,0,0,0-.74,0c-1.08,3.69-4.21,13.26-8.92,18.3C107.45,84,102.26,97.4,107,104.44,107,104.44,133.42,99.9,124.79,57.5Z"/><path class="cls-2" d="M124,62.77c0,.12,0,.22,0,.32l0,.32-.11.63c-.08.41-.16.83-.25,1.25-.17.83-.35,1.66-.53,2.49q-.57,2.48-1.25,4.94T120.3,77.6c-.52,1.61-1.07,3.22-1.67,4.81a81.49,81.49,0,0,1-4.15,9.31c-.19.38-.4.75-.61,1.12l-.31.56-.32.55L112.59,95l-.69,1.08a45.17,45.17,0,0,1-3,4.1.07.07,0,0,1-.09,0,.06.06,0,0,1,0-.08h0A49.81,49.81,0,0,0,111.69,96l.67-1.09c.22-.36.42-.73.63-1.1.11-.18.21-.36.31-.55l.3-.56c.2-.37.41-.74.6-1.12.78-1.5,1.49-3,2.18-4.58s1.3-3.13,1.91-4.71c1.2-3.16,2.24-6.39,3.18-9.65.47-1.63.9-3.26,1.31-4.91.2-.82.4-1.65.58-2.47.1-.42.19-.83.27-1.24l.13-.63.06-.31c0-.1,0-.21.05-.3h0a.07.07,0,0,1,.07-.06S124,62.74,124,62.77Z"/><path class="cls-21" d="M107,104.44s-6.14-6.3-6.27-18.85c-.12-11.64.43-39.43-3.84-50.17a.47.47,0,0,1,.76-.52,58,58,0,0,1,16.2,30.5C117.87,86.5,107,104.44,107,104.44Z"/><path class="cls-1" d="M101.68,44.6a21.79,21.79,0,0,1,1.93,3.08A33.08,33.08,0,0,1,105.14,51a43.53,43.53,0,0,1,2.08,7c.14.59.24,1.19.35,1.79s.2,1.2.28,1.8c.17,1.21.28,2.42.37,3.63l0,.92,0,.45V67l0,.91c0,.3,0,.61,0,.91s0,.61,0,.91l0,.91,0,1.82c-.06,2.43-.13,4.86-.26,7.28,0,1.21-.12,2.42-.19,3.63L107.63,87c-.17,2.42-.34,4.84-.42,7.26,0,.6,0,1.21,0,1.81,0,.31,0,.61,0,.91s0,.6,0,.91c0,.6.07,1.2.15,1.8l0,.45,0,.22,0,.23.16.89h0s0,.07,0,.07-.07,0-.07,0a21.1,21.1,0,0,1-.53-3.61c0-.31,0-.61,0-.91s0-.61,0-.92c0-.6,0-1.21,0-1.82v-.91c0-.3,0-.61,0-.91l0-.91,0-.91c0-1.21.13-2.42.19-3.63l.2-3.63c.06-1.21.13-2.42.18-3.63.12-2.42.19-4.84.24-7.26l0-1.82c0-.61,0-1.21,0-1.82,0-.3,0-.6,0-.9l0-.91,0-.45,0-.45,0-.91c-.08-1.2-.18-2.41-.34-3.6-.06-.6-.16-1.2-.25-1.8s-.2-1.19-.32-1.78a43.17,43.17,0,0,0-2-7c-.21-.57-.43-1.13-.66-1.69s-.49-1.11-.76-1.65-.55-1.08-.85-1.6a16.51,16.51,0,0,0-1-1.53h0Z"/><path class="cls-10" d="M75,176.28A10,10,0,0,0,78.86,179c6.48,3,13.26,5.78,20.39,6.4,10.49.91,20.77-2.77,30.65-6.39-1,.16-4.59-3-5.51-3.64-1.81-1.19-3.59-2.43-5.37-3.65-2.83-1.93-6.36-2.58-9.72-3.1a48.58,48.58,0,0,0-22.61,1.93A46,46,0,0,0,75,176.28Z"/><path class="cls-27" d="M75,176.28A10,10,0,0,0,78.86,179c6.48,3,13.26,5.78,20.39,6.4,10.49.91,20.77-2.77,30.65-6.39-1,.16-4.59-3-5.51-3.64-1.81-1.19-3.59-2.43-5.37-3.65-2.83-1.93-6.36-2.58-9.72-3.1a48.58,48.58,0,0,0-22.61,1.93A46,46,0,0,0,75,176.28Z"/><path class="cls-10" d="M109.5,156.17c-4-4.25-8.11-8.56-13.12-11.6s-11.13-4.7-16.79-3.2l14,20.62c2.7,4,5.45,8,9.23,11,6.62,5.18,18.92,8.06,27.05,5.57-1.26-3.85-6.28-7.47-9.07-10.42Z"/><path class="cls-28" d="M109.5,156.17c-4-4.25-8.11-8.56-13.12-11.6s-11.13-4.7-16.79-3.2l14,20.62c2.7,4,5.45,8,9.23,11,6.62,5.18,18.92,8.06,27.05,5.57-1.26-3.85-6.28-7.47-9.07-10.42Z"/><path class="cls-29" d="M66.69,189.12c5.23,0,10.67.61,15.13,3.34a1.89,1.89,0,0,1,.92.93c.35,1-.88,1.79-1.9,2.12A60,60,0,0,1,61.54,198a111,111,0,0,1-13-1.07,9.87,9.87,0,0,1-4.3-1.26,3.55,3.55,0,0,1-1.6-3.88c.53-1.48,2.26-2.17,3.83-2.25C53.12,189.1,60,189.15,66.69,189.12Z"/><path class="cls-29" d="M203.43,185.1,214,186.57a2.68,2.68,0,0,1,1.42.48,1.86,1.86,0,0,1,.24,2.23A5.41,5.41,0,0,1,214,191c2.51.6,6.88.47,6.76,4a3.5,3.5,0,0,1-2.15,3.06,7,7,0,0,1-2.36.37c-7.83.27-15.78.54-23.36-1.43-1.45-.37-3.16-1.19-3.16-2.68,0-.53.23-1,.26-1.56.17-3.39-7.07-1.4-8.93-1.29-4.14.24-8.28.4-12.42.51-8.46.23-16.92.22-25.37.1a44.61,44.61,0,0,0-8,.33c-2.08.35-4.1,1-6.14,1.51A52.47,52.47,0,0,1,108.51,195c-3.11-.46-6.93-2.13-6.73-5.27.17-2.69,3.23-4.09,5.84-4.79a90.13,90.13,0,0,1,11.74-2.28,173.06,173.06,0,0,1,21.1-1.05c15.31-.12,30.62-.13,45.94-.14C191.55,181.42,198.33,184.39,203.43,185.1Z"/><polygon class="cls-10" points="62.63 160.23 61.99 191.49 57.75 191.49 56.53 166.64 53.87 191.49 49.01 192.3 47.89 159.2 62.63 160.23"/><polygon class="cls-30" points="62.63 160.23 61.99 191.49 57.75 191.49 56.53 166.64 53.87 191.49 49.01 192.3 47.89 159.2 62.63 160.23"/><path class="cls-10" d="M76.43,131.65A113.65,113.65,0,0,1,70.11,142a4.61,4.61,0,0,1-3.42,1.58,6,6,0,0,1-1.57-.24c-1.51-.37-3-.81-4.5-1.3l-.36-.18h0c-1-.73-1.22-2.74-1.44-3.9-.12-.64-.71-3.18.38-3.37.55-.1,2.35,1.5,2.86,1.81a34.88,34.88,0,0,0,3.3,1.77.89.89,0,0,0,.45.12.85.85,0,0,0,.43-.29A39.79,39.79,0,0,0,72,129.12c.44.19.87.4,1.3.62.6.31,1.19.65,1.77,1l.18.1A6,6,0,0,1,76.43,131.65Z"/><path class="cls-31" d="M76.43,131.65A113.65,113.65,0,0,1,70.11,142a4.61,4.61,0,0,1-3.42,1.58,6,6,0,0,1-1.57-.24c-1.51-.37-3-.81-4.5-1.3a3.14,3.14,0,0,1-.37-.18c-.08,0-.29-.78-.32-.88a8.52,8.52,0,0,1-.23-1,7.44,7.44,0,0,1,0-2c0-.23.06-.4.27-.22s.13.19.22.27.31.22.46.33c.42.3.84.6,1.29.88a12.21,12.21,0,0,0,2.75,1.2,5.46,5.46,0,0,0,2,.29A3,3,0,0,0,69.05,139c.35-.54.69-1.1,1-1.66a11,11,0,0,1,1.1-1.59c.88-1.06,1.75-2.12,2.63-3.17a15.13,15.13,0,0,1,1.48-1.71A8.49,8.49,0,0,1,76.43,131.65Z"/><polygon class="cls-32" points="51.91 191 51.91 162.02 47.89 159.2 49.25 191.49 51.91 191"/><path class="cls-10" d="M51,132.57a35.82,35.82,0,0,0-3.3,1.87c-2.27,1.45-1.86,2.12-1.44,4.63a98.94,98.94,0,0,1,1.33,16.21,14.34,14.34,0,0,0,.27,3.92,10.71,10.71,0,0,1,.84,2.34c3.5.48,11.5,2.28,13.89-1.31s-1.83-15.66-1.06-21.08-6.27-6-6.27-6Z"/><path class="cls-33" d="M58.18,152.57,59,148a1.3,1.3,0,0,1,1.16-1l8.72-.68a.87.87,0,0,1,.92.82.55.55,0,0,1,0,.18l-3.36,15.13a.87.87,0,0,1-.84.67h-8a.86.86,0,0,1-.86-.86s0-.09,0-.14Z"/><path class="cls-34" d="M55.85,157.65l-6.34,4.28-1-1.33a23.82,23.82,0,0,1-.85-6.77c.15-3.41,0-2.19,0-2.19l8.92,5.64Z"/><path class="cls-35" d="M59,127.28a5,5,0,0,1-.93,3.19,1.57,1.57,0,0,1-.45.58,1.8,1.8,0,0,1-1.31.11.54.54,0,0,0-.31,0c-.25.1-.28.44-.27.71l.07,1.24a.73.73,0,0,1-.08.5.81.81,0,0,1-.33.21,2.67,2.67,0,0,1-2.68-.61,2.11,2.11,0,0,1-.42-.56,2.45,2.45,0,0,1-.15-.65c-.15-1.19,0-2.39-.11-3.59a11.59,11.59,0,0,1-.09-3A3.28,3.28,0,0,1,53.86,123a4.89,4.89,0,0,1,3.14.07,13.89,13.89,0,0,1,1.46.49A.93.93,0,0,1,59,124c.19.38,0,.93,0,1.34C59,126,59,126.65,59,127.28Z"/><path class="cls-36" d="M59,122.39c.11.24.27.45.39.69a1,1,0,0,1,.13.76,1.06,1.06,0,0,1-.38.51,4.32,4.32,0,0,1-3,.75,4.61,4.61,0,0,0-.91,0,1.3,1.3,0,0,0-.8.39,3,3,0,0,0-.39,1.35v.08h0c-.34,0-.66-.35-1-.22a.53.53,0,0,0-.25.43,1.06,1.06,0,0,0,.09.61A.48.48,0,0,1,53,128a.43.43,0,0,1,0,.16l-.21.59a.91.91,0,0,1-.38.54.89.89,0,0,1-.8-.15,1.3,1.3,0,0,1-.44-.37,1.26,1.26,0,0,1-.16-.42,20.51,20.51,0,0,1-.35-4.49,2.61,2.61,0,0,1,.14-1,2.33,2.33,0,0,1,1.76-1.11,18.5,18.5,0,0,1,4-.29,5.8,5.8,0,0,1,1.25.08,1.93,1.93,0,0,1,1.07.61"/><path class="cls-36" d="M56.94,128.65a1,1,0,0,0-.47.51v.08s0,0,.07,0a10.44,10.44,0,0,0,1.37,0,2.64,2.64,0,0,0,1-.26.08.08,0,0,0,.07,0,.09.09,0,0,0,0-.07.67.67,0,0,0-.71-.64h0A2.88,2.88,0,0,0,56.94,128.65Z"/><path class="cls-3" d="M52.14,132s-1,.68-1,1.42S56.43,149,56.43,149s.12-14.18,0-14.84a10.48,10.48,0,0,0-.71-1.86S53.69,133.79,52.14,132Z"/><polygon class="cls-37" points="53.87 133.34 53.51 134.49 54.11 134.98 54.39 143.03 56.48 148.97 56.53 142.93 54.74 134.95 55.39 133.82 54.53 133.34 53.87 133.34"/><path class="cls-10" d="M57.75,154.26a13.64,13.64,0,0,1-2.1,2.13l-.48.38a1.19,1.19,0,0,1-.62.29,1.07,1.07,0,0,1-.46-.11q-4.59-1.78-9-4c-1.22-.63-2.57-1.45-2.83-2.8a4.83,4.83,0,0,1,0-1.42,41.27,41.27,0,0,1,2.66-10c.37-.9.83-2.64,1.79-3.23h.11l.14-.07c1.3-.47,2.43.83,2.79,1.93a8.74,8.74,0,0,1-.15,4.86A30.13,30.13,0,0,0,48.49,147a1.28,1.28,0,0,0,.06.67,1.41,1.41,0,0,0,.5.5Z"/><path class="cls-37" d="M57.75,191.49l.23,2.3,1.45.27.65-.57,1.11.88h4.35s1.11-1.91-1.3-2.56l-2.4-.65Z"/><path class="cls-37" d="M49.25,191.49l.23,2.3,1.45.27.65-.57,1.1.88H57s1.1-1.91-1.3-2.56l-2.41-.65Z"/><polygon class="cls-38" points="56.53 166.64 58.48 165.06 59.85 191.16 57.75 191.49 56.53 166.64"/><path class="cls-39" d="M55.69,156.39l-.48.38a1.19,1.19,0,0,1-.62.29,1.07,1.07,0,0,1-.46-.11q-4.59-1.78-9-4c-1.22-.63-2.57-1.45-2.83-2.8a4.83,4.83,0,0,1,0-1.42,41.27,41.27,0,0,1,2.66-10c.37-.9.83-2.64,1.79-3.23h.11l.14-.07a2.92,2.92,0,0,1,2.79,1.93s-4.63,9.48-4.43,10.91,9.92,6.07,9.92,6.07Z"/><path class="cls-35" d="M59.93,155.06a1.6,1.6,0,0,1,.69.34.67.67,0,0,1,.23.7,1.88,1.88,0,0,1-.27.42c-.12.22-.14.5-.26.73a1.54,1.54,0,0,1-1,.7,3.59,3.59,0,0,1-3.51-.32c-.68-.59-2-3-.54-3.35a5.78,5.78,0,0,1,1.9.2A16.12,16.12,0,0,1,59.93,155.06Z"/><polygon class="cls-10" points="185.08 172.08 142.34 172.08 149.91 150.76 178.7 150.76 185.08 172.08"/><polygon class="cls-40" points="185.08 172.08 142.34 172.08 149.91 150.76 178.7 150.76 185.08 172.08"/><rect class="cls-10" x="102.47" y="73.33" width="126.1" height="85.43" rx="7.67" ry="7.67"/><path class="cls-41" d="M206.69,146a.62.62,0,0,0,.36.63,1.69,1.69,0,0,0,.77.1h1.12a.54.54,0,0,1,.33.07.56.56,0,0,1,.16.46l.12,4.76a6.85,6.85,0,0,1-.44,3.2c-.24.49-.6.91-.85,1.39a1.9,1.9,0,0,0-.21,1.56c1.9.08,3.8.08,5.69,0a1.43,1.43,0,0,0,1-.3,1.26,1.26,0,0,0,.27-.51,40.48,40.48,0,0,0,1.38-4.84,18.56,18.56,0,0,0,.53-4.75,9.17,9.17,0,0,0-1.31-4.56,2.77,2.77,0,0,0-.78-.89,3,3,0,0,0-1.08-.43,31,31,0,0,0-5.77-.76,3,3,0,0,0-1.89.29,2,2,0,0,0-.79,1.81,6.38,6.38,0,0,0,.58,2"/><path class="cls-42" d="M113.27,153.71q1.8-5.93,4.09-11.69a.8.8,0,0,1,.33-.37.74.74,0,0,1,.51,0l3.33.47a15.26,15.26,0,0,1-1.64,5.35,45.19,45.19,0,0,0-2.82,9.53,2,2,0,0,1-.3.93,2.1,2.1,0,0,1-1.4.73c-1.63.34-2.69.84-3-.82C112.17,156.57,112.93,154.83,113.27,153.71Z"/><path class="cls-43" d="M128.86,154.74h3.58a1,1,0,0,1,.7.17c.17.15.21.39.35.58.29.4.87.39,1.36.34a31.14,31.14,0,0,0,5.07-1l-.64-4.36a38.83,38.83,0,0,1-9.25.91l-.17-5.25h4.72a.72.72,0,0,0,.85-.56.62.62,0,0,0,0-.33,13.74,13.74,0,0,0-.11-1.92.54.54,0,0,0-.17-.4.56.56,0,0,0-.44-.06,57,57,0,0,1-10.85.4A55.26,55.26,0,0,1,121,159c1.92-.21,4.2.12,6-.3.88-.2.84-.29,1.12-1.24A26,26,0,0,1,128.86,154.74Z"/><path class="cls-33" d="M228.56,81v61.47H102.46V81a7.68,7.68,0,0,1,7.67-7.67H220.89A7.67,7.67,0,0,1,228.56,81Z"/><path class="cls-10" d="M211.2,139a12.62,12.62,0,0,1-4.75,2.36.83.83,0,0,0-.57.27.8.8,0,0,0,0,.53,22,22,0,0,0,1.12,3.65,18.37,18.37,0,0,0,7.21-2.54,2.74,2.74,0,0,0,.92-.8,3,3,0,0,0,.3-1.25c.09-1.19.26-2.88-.44-3.93-.56-.82-.86-.28-1.6.23Z"/><path class="cls-44" d="M212.1,138.84a12.55,12.55,0,0,1-4.75,2.36.82.82,0,0,0-.58.28.77.77,0,0,0,0,.52,21.06,21.06,0,0,0,1.11,3.65,18.41,18.41,0,0,0,7.22-2.54,2.51,2.51,0,0,0,.91-.8,2.62,2.62,0,0,0,.3-1.25c.09-1.18.27-2.88-.44-3.92-.55-.82-.86-.29-1.6.22Z"/><path class="cls-3" d="M226.69,82.47v58H104.36v-58a7.41,7.41,0,0,1,7.44-7.36H219.22a7.4,7.4,0,0,1,7.47,7.33Z"/><path class="cls-22" d="M226.69,82.47v58H104.36v-58a7.41,7.41,0,0,1,7.44-7.36H219.22a7.4,7.4,0,0,1,7.47,7.33Z"/><rect class="cls-22" x="114.94" y="82.7" width="40.28" height="37"/><path class="cls-10" d="M201.06,174.92A6.48,6.48,0,0,0,204,185.76v1.48H126a7.74,7.74,0,0,1,0-15.48h78v1.48A6.56,6.56,0,0,0,201.06,174.92Z"/><path class="cls-45" d="M204,185.76v1.48H126a7.73,7.73,0,0,1-7.34-5.3c3,.52,21.71,3.51,32.15-2.44l48.9,2.61A6.48,6.48,0,0,0,204,185.76Z"/><path class="cls-3" d="M128.18,191.57c2.21.12,4.58.22,6.47-.94a1,1,0,0,0,.34-.3.64.64,0,0,0-.06-.63,1.31,1.31,0,0,0-.51-.42,7,7,0,0,0-2.25-.65c-1-.17-1.91-.33-2.87-.43-.62-.06-1.67-.31-2.17.19a1.94,1.94,0,0,0-.24,1.59C127,190.88,127.18,191.51,128.18,191.57Z"/><path class="cls-3" d="M113.53,189.07c1.74,1.37,3.64,2.79,5.85,2.92a.82.82,0,0,0,.44-.06.62.62,0,0,0,.32-.55,1.43,1.43,0,0,0-.18-.64,7.16,7.16,0,0,0-1.48-1.81c-.69-.68-1.38-1.36-2.12-2-.47-.4-1.19-1.21-1.88-1.08s-.88.72-1.11,1.17C113,187.83,112.74,188.45,113.53,189.07Z"/><path class="cls-3" d="M201.06,174.92A6.49,6.49,0,0,0,204,185.76V186H157.3a6.5,6.5,0,0,1,0-13H204v.21A6.66,6.66,0,0,0,201.06,174.92Z"/><path class="cls-3" d="M61.79,147.21l.23-.76a.39.39,0,0,1,.31-.26l4.61-.34a.24.24,0,0,1,.26.2.2.2,0,0,1,0,.11l-.28.83a.43.43,0,0,1-.39.3l-4.44.27a.27.27,0,0,1-.29-.25A.34.34,0,0,1,61.79,147.21Z"/><path class="cls-35" d="M79.91,127.58a3.49,3.49,0,0,1-1.45,1.4,12.16,12.16,0,0,1-1.77.67,3,3,0,0,0-1.56,1l-.07.09c-.58-.35-1.17-.68-1.77-1,.08-.16.23-.35.29-.47.13-.29.23-.59.35-.88A5.54,5.54,0,0,1,76,125.93c.07,0,.16-.09.23,0a.17.17,0,0,1,0,.14,2.38,2.38,0,0,1-.34,1.21l3.62-1.3a.49.49,0,0,1,.29,0,.4.4,0,0,1,.25.26A1.66,1.66,0,0,1,79.91,127.58Z"/><path class="cls-33" d="M130.81,186.56v2.2a21.36,21.36,0,0,1-4,.11.39.39,0,0,1-.45-.31.57.57,0,0,1,0-.13c-.28-3.65.18-7.33-.24-11a7.72,7.72,0,0,0-.52-2.22,10.59,10.59,0,0,0-1.24-2,46.82,46.82,0,0,1-3.73-6.09,14.42,14.42,0,0,1-1.39-6.93c0-2.39,1.26-3.42,3.59-2.8a2.42,2.42,0,0,1,1,.4,2.48,2.48,0,0,1,.58.75,56.86,56.86,0,0,1,3.73,7.13C130.69,172.27,130.9,179.48,130.81,186.56Z"/><path class="cls-46" d="M130.81,186.56v2.2a21.36,21.36,0,0,1-4,.11.39.39,0,0,1-.45-.31.57.57,0,0,1,0-.13c-.28-3.65.18-7.33-.24-11a7.72,7.72,0,0,0-.52-2.22,10.59,10.59,0,0,0-1.24-2,46.82,46.82,0,0,1-3.73-6.09,14.42,14.42,0,0,1-1.39-6.93c0-2.39,1.26-3.42,3.59-2.8a2.42,2.42,0,0,1,1,.4,2.48,2.48,0,0,1,.58.75,56.86,56.86,0,0,1,3.73,7.13C130.69,172.27,130.9,179.48,130.81,186.56Z"/><path class="cls-35" d="M132.08,144.47a19.72,19.72,0,0,0,11.44-8.56,2.53,2.53,0,0,0,.49-2.2.3.3,0,0,0-.17-.22.39.39,0,0,0-.41.11l-6.16,4a18.39,18.39,0,0,1-5.43,2.74,7.07,7.07,0,0,0-.63,1.9A3.53,3.53,0,0,0,132.08,144.47Z"/><rect class="cls-3" x="134.35" y="96.49" width="72.26" height="58.23"/><path class="cls-47" d="M144.53,153.56a2.59,2.59,0,0,1-1.11.42,30.23,30.23,0,0,1-8,.52,1.23,1.23,0,0,1-.74-.21,1.28,1.28,0,0,1-.33-.86,8.48,8.48,0,0,1,.16-2.46c0-.11,6.54-.1,7.16,0C142.54,151.11,146.07,152.32,144.53,153.56Z"/><path class="cls-47" d="M200.59,130.56a4.66,4.66,0,0,0,0,1.58,5.63,5.63,0,0,0,1.08,2,33.47,33.47,0,0,1,4.61,9,19.3,19.3,0,0,0,.45-5.41,8.65,8.65,0,0,0-.14-1.9,11.9,11.9,0,0,0-1-2.49,19.31,19.31,0,0,1-1.31-4c-.2-1-.54-3.4-2.06-3.24C200.91,126.31,200.69,129.59,200.59,130.56Z"/><path class="cls-33" d="M114.69,162.25a35.05,35.05,0,0,0,2.45,6.64C118,170.7,120,173,120,175.06c0,3.68-3.87,8.59-6.25,11.11a21,21,0,0,0,4,2.06,1.51,1.51,0,0,0,1,.14,1.53,1.53,0,0,0,.82-.84l2.59-4.49c1.44-2.5,2.93-5.14,3-8a19.3,19.3,0,0,0-.22-3.13c-.27-2.21,0-4.71-.55-6.86s-1.13-3.9-1.58-5.89a4.29,4.29,0,0,0-1.34-2.69,3.5,3.5,0,0,0-1.17-.51c-2-.57-4.2-.64-5.3,1.45A7.2,7.2,0,0,0,114.69,162.25Z"/><path class="cls-3" d="M132.69,140.56c1.1.4.07,3-.22,3.73a.67.67,0,0,1-.76.55l-.11,0c-1.65-.15-3.3-.35-4.94-.59a2.7,2.7,0,0,1-1-.3,1.83,1.83,0,0,1-.73-1.18c-.15-.77-.23-2.61.44-3.2.48-.43,1.45-.12,2.08-.06A21.69,21.69,0,0,1,132.69,140.56Z"/><path class="cls-48" d="M132.34,141.65c1.1.4.07,3-.23,3.73a.79.79,0,0,1-.31.47.86.86,0,0,1-.55.06c-1.66-.15-3.3-.35-4.94-.58a3,3,0,0,1-1-.31,1.78,1.78,0,0,1-.72-1.18c-.16-.77-.23-2.61.44-3.2.48-.42,1.44-.12,2.08-.06A22.1,22.1,0,0,1,132.34,141.65Z"/><path class="cls-35" d="M129.48,131.09c.2.33.59.52.72.87s-.14.88-.3,1.31c-.21.6-.14,1.28-.35,1.88a.69.69,0,0,1-.22.34.83.83,0,0,1-.32.13,4.75,4.75,0,0,1-1.36.08.39.39,0,0,0-.26,0,.4.4,0,0,0-.12.23,7.27,7.27,0,0,0,0,3.47c.1.37.21.83-.07,1.1a.68.68,0,0,1-.35.17,2.49,2.49,0,0,1-2.28-1.09,10.43,10.43,0,0,1-1.34-2A2.38,2.38,0,0,1,123,137a2.43,2.43,0,0,1,.12-.85,14.14,14.14,0,0,0,.45-2.89,11.5,11.5,0,0,1,.45-3.69,2,2,0,0,1,.76-1,2.39,2.39,0,0,1,1.34-.21,3.5,3.5,0,0,1,2.52.82C128.87,129.4,129.24,130.65,129.48,131.09Z"/><path class="cls-33" d="M129.11,128.13c.37-.07.64.43.5.77a1.12,1.12,0,0,1-.91.59,10.6,10.6,0,0,0-1.11.16.92.92,0,0,0-.69.8.85.85,0,0,0-.94.62,2.56,2.56,0,0,0,0,1.23c-.12.13-.33,0-.44-.09s-.18-.29-.32-.38c-.32-.17-.7.23-.66.59a1.67,1.67,0,0,0,.59.88.45.45,0,0,1,.16.2c.1.3-.3.51-.61.58a1.48,1.48,0,0,1-.08.69.57.57,0,0,1-.53.39c-.21,0-.38-.17-.57-.25s-.49,0-.51.18c-.32-.67,0-1.3-.12-2s-.64-.37-1-.76c-.19-.22-.18-.55-.27-.83a10.38,10.38,0,0,1-.49-1c-.14-.62.38-1.18.85-1.6a.61.61,0,0,1,.15-.69,1.33,1.33,0,0,1,.68-.29.36.36,0,0,0,.18-.07.27.27,0,0,0,0-.32c-.15-1.89,2.93-1.37,4.06-1.27a3,3,0,0,1,1.33.45C128.59,126.83,129.53,128.05,129.11,128.13Z"/><path class="cls-3" d="M123.13,137.11h.07c1.65.41,4,1.91,4.59,3.58a14.72,14.72,0,0,1,.64,7.09c-.34,1.51-1.26,2.82-1.64,4.29a34.72,34.72,0,0,1-1.16,4.81,3.45,3.45,0,0,1-1.32,1.8,3.94,3.94,0,0,1-1.82.4c-1.85.1-4.45.73-6-.54a5,5,0,0,1-1.56-4.13,14.7,14.7,0,0,1,1.18-4.41l2.57-6.7C119.32,141.71,120.82,136.65,123.13,137.11Z"/><path class="cls-49" d="M121.78,153.65a2.15,2.15,0,0,1,.28.78,2,2,0,0,1-.09.59,12.44,12.44,0,0,0-.33,3.33.76.76,0,0,0,.17.56.82.82,0,0,0,.5.15,3.64,3.64,0,0,0,1.91-.19,3.29,3.29,0,0,0,1.4-1.76,34.75,34.75,0,0,0,1.86-6.3,2.43,2.43,0,0,0,.1-1.07,2,2,0,0,0-1-1.28c-.45-.31-1-.53-1.39-.86-.85-.66-1.48-1.84-2.64-2a1.71,1.71,0,0,0-1.8,1.28C120.05,148.88,120.84,151.75,121.78,153.65Z"/><path class="cls-3" d="M124.57,142s2.35,6.37,2.82,6.84-4.54,3.28-4.54,3.28-3.26-6.19-3.1-8.88S122.69,139.47,124.57,142Z"/><path class="cls-35" d="M122.85,151.26a2.38,2.38,0,0,0,2.69,2h0l4.26-.06c2,0,3.92-.09,5.88-.08a6.13,6.13,0,0,1,1.4.36,5.82,5.82,0,0,0,1.86.11,5.58,5.58,0,0,0,3.27-1.51,1.84,1.84,0,0,0,.67-2,.45.45,0,0,0-.2-.23.49.49,0,0,0-.24,0,9.53,9.53,0,0,1-3.53-.06.81.81,0,0,0,.14-.5.31.31,0,0,0-.35-.3.53.53,0,0,0-.23.16,2.73,2.73,0,0,1-2.3.91c-3.23-.15-6.41-.84-9.64-1a5.5,5.5,0,0,0-2.24.23A2.67,2.67,0,0,0,122.85,151.26Z"/><path class="cls-50" d="M210.76,136a7.56,7.56,0,0,0-2.14,1.45,3.12,3.12,0,0,0-1,2.33,4.19,4.19,0,0,0,1.63,2.6c.9.79,2,1.62,2.07,2.83.65-.48,1.24-1,1.9-1.5a25.25,25.25,0,0,1,3.83-1.81,6.17,6.17,0,0,0,3.17-2.7,7.56,7.56,0,0,0,.56-2.52,11.93,11.93,0,0,0,.07-2.8,4.11,4.11,0,0,0-1.16-2.49,7.46,7.46,0,0,0-3.47-1.47,3.73,3.73,0,0,0-3.29,2.31c-.26.7-.14,1.5-.4,2.19A3.2,3.2,0,0,1,210.76,136Z"/><path class="cls-35" d="M199.69,192.74a2.39,2.39,0,0,0-.73.19.69.69,0,0,0-.39.6.78.78,0,0,0,.45.56c.22.11.47.16.69.28a3.84,3.84,0,0,0,.59.33,1.67,1.67,0,0,0,1.08-.15,14.23,14.23,0,0,1,4.88-.8,1.93,1.93,0,0,0,.48,0,1.42,1.42,0,0,0,.95-1.1,7.19,7.19,0,0,0,0-3.13.66.66,0,0,0-.12-.33.53.53,0,0,0-.27-.16c-1.63-.62-2.33,1-3.4,1.88A8.73,8.73,0,0,1,199.69,192.74Z"/><path class="cls-10" d="M205.12,192.79h-.32a13.57,13.57,0,0,1-2.21.06.82.82,0,0,1-.4-.1.68.68,0,0,1-.24-.53,3,3,0,0,0,0-.6.24.24,0,0,0-.06-.11h-.11a3.42,3.42,0,0,0-1.61.45,5.51,5.51,0,0,0-2.5,2,.58.58,0,0,0-.09.26.43.43,0,0,0,.09.22c.66,1,2.31.78,3.32.57s2.2-.67,3.34-.85,2.6-.1,3.68-.76a1.13,1.13,0,0,0,.43-.41,1.72,1.72,0,0,0-.44-1.76.28.28,0,0,0-.15-.11.32.32,0,0,0-.23.06c-.51.32-.85.88-1.37,1.2A2.66,2.66,0,0,1,205.12,192.79Z"/><path class="cls-10" d="M216.3,151s5.09,2.92,3.67,8.25c-1.25,4.66-4.83,7.56-7.12,11.54-1.27,2.2-1,5.81-1.57,8.38a60.87,60.87,0,0,1-2.71,9.25c-.24.6-.61,1.31-1.26,1.33-.3,0-.6-.1-.9-.17a4.22,4.22,0,0,1-.87,0c-.74-.17-.74-1.22-.57-2a61.23,61.23,0,0,0,1.46-10.87c.12-2.82-.64-5.81.16-8.55.63-2.16,4.41-13.76,4.41-13.76Z"/><path class="cls-51" d="M216.3,151s5.09,2.92,3.67,8.25c-1.25,4.66-4.83,7.56-7.12,11.54-1.27,2.2-1,5.81-1.57,8.38a60.87,60.87,0,0,1-2.71,9.25c-.24.6-.61,1.31-1.26,1.33-.3,0-.6-.1-.9-.17a4.22,4.22,0,0,1-.87,0c-.74-.17-.74-1.22-.57-2a61.23,61.23,0,0,0,1.46-10.87c.12-2.82-.64-5.81.16-8.55.63-2.16,4.41-13.76,4.41-13.76Z"/><path class="cls-35" d="M210.43,195.56a2.12,2.12,0,0,0-.66.36.68.68,0,0,0-.23.68.76.76,0,0,0,.57.43,3.66,3.66,0,0,1,.73.1c.22.07.45.13.67.18a1.76,1.76,0,0,0,1-.42,14.26,14.26,0,0,1,4.53-2,1.77,1.77,0,0,0,.46-.15,1.45,1.45,0,0,0,.58-1.27,6.82,6.82,0,0,0-.81-3,.7.7,0,0,0-.19-.29.53.53,0,0,0-.3-.09c-1.74-.19-2,1.56-2.82,2.67A8.8,8.8,0,0,1,210.43,195.56Z"/><path class="cls-10" d="M215.69,154.65a6.47,6.47,0,0,1,3.58,1.74c2.13,1.81,2,5.51,1.26,8.22-.38,1.42-2.64,5.89-3,7.16-.63,2.4.63,5.38.74,7.81a62.07,62.07,0,0,1-.33,9.64c-.07.64-.26,1.41-.88,1.6-.3.08-.62,0-.92.06a3.78,3.78,0,0,1-.83.24c-.76,0-1-1-1-1.75a62.38,62.38,0,0,0-1.29-10.9c-.58-2.76-2.07-5.47-2-8.32l.21-7c.08-2.58-.28-5.19.51-7.67a1.46,1.46,0,0,1,.46-.77,1.49,1.49,0,0,1,.74-.2,14.72,14.72,0,0,1,2.3,0Z"/><path class="cls-35" d="M212,128.53c-.19.32-.59.51-.72.87s.15.88.3,1.31c.22.6.15,1.28.36,1.88a.75.75,0,0,0,.21.34,1,1,0,0,0,.32.12,4.22,4.22,0,0,0,1.37.08.39.39,0,0,1,.26,0,.35.35,0,0,1,.12.23,7.28,7.28,0,0,1-.06,3.47c-.09.37-.2.83.08,1.1a.68.68,0,0,0,.35.17,2.5,2.5,0,0,0,2.28-1.1,10.23,10.23,0,0,0,1.33-2,1.59,1.59,0,0,0,.11-1.49,14.75,14.75,0,0,1-.44-2.88,11,11,0,0,0-.46-3.7,1.93,1.93,0,0,0-.75-1,2.41,2.41,0,0,0-1.35-.21,3.44,3.44,0,0,0-2.51.82C212.63,126.84,212.25,128.12,212,128.53Z"/><path class="cls-3" d="M218.37,134.53s-3.73,1.93-4.86,3.44-3,2.63-2.26,5.5c.58,2.32-.05,4.48-.08,6.78,0,.63.27,1.14.26,1.78,0,1.12-1,2.11-.62,3.27.29.95,1.39,1.36,2.35,1.63l3.75,1.09a3.46,3.46,0,0,0,2.53.06c.94-.52,1.15-1.77,1.24-2.84.22-2.77.14-6.1,1.28-8.69a8,8,0,0,0,.68-4.73C222.4,139.72,221.49,134.16,218.37,134.53Z"/><path class="cls-50" d="M213.21,126.52a2.63,2.63,0,0,0,.83,1.6c.44.41,1,.69,1.44,1.09a1.81,1.81,0,0,1,.73,1.58.78.78,0,0,1,1,.31.63.63,0,0,1-.1.69.83.83,0,0,1-.65.27,2.5,2.5,0,0,1,1.16.94c.32.47.48,1,.77,1.53a5.27,5.27,0,0,0,1.33,1.25,1.81,1.81,0,0,1,.58.62,11.07,11.07,0,0,0,.39,1.1,15.46,15.46,0,0,0,1.07,1.35,4.86,4.86,0,0,1,.84,2.53,5.48,5.48,0,0,1,0-.81c.09-.16.18-.32.26-.48a4.23,4.23,0,0,0,.34-.92,9,9,0,0,0,.06-2.2c0-1.57,1.48-4.53.29-5.88A12.45,12.45,0,0,0,222,130c-1-.87-1.2-2.4-1.86-3.59a4.5,4.5,0,0,0-2.75-2.15C215.84,123.85,213,124.34,213.21,126.52Z"/><path class="cls-3" d="M218.25,137s-6.71,1.08-7.34.91-.63,5.56-.63,5.56,7-.21,9.26-1.67S221.36,137.31,218.25,137Z"/><path class="cls-35" d="M211,143a2.37,2.37,0,0,1-3.07-1.34h0l-5.37-9.82c0-.86-.49-1.8-.22-2.61.14-.39.42-.71.56-1.09a2.29,2.29,0,0,0,0-1.55,6.55,6.55,0,0,0-.74-1.38.65.65,0,0,1,.75-.41,1.49,1.49,0,0,1,.78.49,5,5,0,0,1,1.4,3.57,4.09,4.09,0,0,0,0,1.21,3,3,0,0,0,.38.76c1.72,2.74,3.88,5.17,5.6,7.91a5.63,5.63,0,0,1,.9,2.07A2.66,2.66,0,0,1,211,143Z"/><path class="cls-10" d="M215.86,194.65l-.29.08a13.25,13.25,0,0,1-2,.33.81.81,0,0,1-.38,0,.62.62,0,0,1-.29-.46,2.07,2.07,0,0,0-.11-.55.13.13,0,0,0-.07-.09.17.17,0,0,0-.1,0,3.28,3.28,0,0,0-1.43.62,5.14,5.14,0,0,0-2,2.18.7.7,0,0,0-.05.25.45.45,0,0,0,.11.19c.74.87,2.22.43,3.12.1s1.94-.88,3-1.19a9,9,0,0,0,3.28-1.17,1.1,1.1,0,0,0,.35-.42,1.6,1.6,0,0,0-.63-1.57.28.28,0,0,0-.15-.08.27.27,0,0,0-.2.09c-.44.36-.68.91-1.11,1.27A2.61,2.61,0,0,1,215.86,194.65Z"/><path class="cls-10" d="M202.44,148H139.69V104.32h62.8Zm-62.24-.56h61.68V104.88H140.2Z"/><polygon class="cls-10" points="145.29 140.18 142.95 137.76 154.23 126.86 161.52 130.2 174.17 118.46 180.82 122.66 193.78 112.06 195.91 114.66 181.08 126.8 174.56 122.69 162.16 134.2 154.92 130.88 145.29 140.18"/><polygon class="cls-10" points="198.28 119.29 194.92 119.29 194.92 113.55 189.02 113.55 189.02 110.18 198.28 110.18 198.28 119.29"/></g></g></svg>